STARTFONT 2.1
COMMENT
COMMENT Converted from OpenType font "Retro Gaming.ttf" by "otf2bdf 3.0".
COMMENT
FONT -FreeType-Retro Gaming-Medium-R-Normal--17-120-100-100-P-111-ISO10646-1
SIZE 12 100 100
FONTBOUNDINGBOX 23 23 -1 -5
STARTPROPERTIES 19
FOUNDRY "FreeType"
FAMILY_NAME "Retro Gaming"
WEIGHT_NAME "Medium"
SLANT "R"
SETWIDTH_NAME "Normal"
ADD_STYLE_NAME ""
PIXEL_SIZE 17
POINT_SIZE 120
RESOLUTION_X 100
RESOLUTION_Y 100
SPACING "P"
AVERAGE_WIDTH 111
CHARSET_REGISTRY "ISO10646"
CHARSET_ENCODING "1"
FONT_ASCENT 17
FONT_DESCENT 4
COPYRIGHT "Copyright © 2019 by Vasily Draigo aka Daymarius. All rights reserved."
_OTF_FONTFILE "Retro Gaming.ttf"
_OTF_PSNAME "RetroGaming"
ENDPROPERTIES
CHARS 316
STARTCHAR 0020
ENCODING 32
SWIDTH 360 0
DWIDTH 6 0
BBX 0 0 0 0
BITMAP
ENDCHAR
STARTCHAR 0021
ENCODING 33
SWIDTH 360 0
DWIDTH 6 0
BBX 3 13 2 0
BITMAP
E0
E0
E0
E0
E0
E0
E0
E0
00
00
E0
E0
E0
ENDCHAR
STARTCHAR 0022
ENCODING 34
SWIDTH 660 0
DWIDTH 11 0
BBX 8 5 2 8
BITMAP
E7
E7
E7
E7
E7
ENDCHAR
STARTCHAR 0023
ENCODING 35
SWIDTH 1080 0
DWIDTH 18 0
BBX 15 13 2 0
BITMAP
1C70
1C70
1C70
FFFE
FFFE
1C70
1C70
1C70
FFFE
FFFE
1C70
1C70
1C70
ENDCHAR
STARTCHAR 0024
ENCODING 36
SWIDTH 840 0
DWIDTH 14 0
BBX 11 19 2 -3
BITMAP
0E00
0E00
0E00
7F80
7F80
ECE0
ECE0
EC00
7F80
7FE0
0CE0
0CE0
0CE0
ECE0
7F80
7F80
0E00
0E00
0E00
ENDCHAR
STARTCHAR 0025
ENCODING 37
SWIDTH 840 0
DWIDTH 14 0
BBX 11 13 2 0
BITMAP
38E0
38E0
D8E0
C080
E380
0700
0700
1C00
38E0
38E0
E360
E380
E380
ENDCHAR
STARTCHAR 0026
ENCODING 38
SWIDTH 900 0
DWIDTH 15 0
BBX 12 13 2 0
BITMAP
7F80
7F80
E0E0
E0E0
E000
7C00
7C00
E1F0
E1F0
E1C0
E1C0
7F00
7F00
ENDCHAR
STARTCHAR 0027
ENCODING 39
SWIDTH 360 0
DWIDTH 6 0
BBX 3 5 2 8
BITMAP
E0
E0
E0
E0
E0
ENDCHAR
STARTCHAR 0028
ENCODING 40
SWIDTH 540 0
DWIDTH 9 0
BBX 6 13 2 0
BITMAP
1C
1C
38
38
E0
E0
E0
E0
E0
E0
38
1C
1C
ENDCHAR
STARTCHAR 0029
ENCODING 41
SWIDTH 540 0
DWIDTH 9 0
BBX 6 13 2 0
BITMAP
E0
E0
38
38
1C
1C
1C
1C
1C
1C
38
E0
E0
ENDCHAR
STARTCHAR 002A
ENCODING 42
SWIDTH 900 0
DWIDTH 15 0
BBX 12 8 2 3
BITMAP
79E0
0F80
0F80
FFF0
FFF0
0F80
79E0
79E0
ENDCHAR
STARTCHAR 002B
ENCODING 43
SWIDTH 720 0
DWIDTH 12 0
BBX 9 8 2 2
BITMAP
1C00
1C00
1C00
FF80
FF80
1C00
1C00
1C00
ENDCHAR
STARTCHAR 002C
ENCODING 44
SWIDTH 360 0
DWIDTH 6 0
BBX 5 5 0 -2
BITMAP
38
38
38
E0
E0
ENDCHAR
STARTCHAR 002D
ENCODING 45
SWIDTH 540 0
DWIDTH 9 0
BBX 6 2 2 6
BITMAP
FC
FC
ENDCHAR
STARTCHAR 002E
ENCODING 46
SWIDTH 360 0
DWIDTH 6 0
BBX 3 3 2 0
BITMAP
E0
E0
E0
ENDCHAR
STARTCHAR 002F
ENCODING 47
SWIDTH 840 0
DWIDTH 14 0
BBX 11 13 2 0
BITMAP
00E0
00E0
00E0
0080
0380
0700
0700
1C00
3800
3800
E000
E000
E000
ENDCHAR
STARTCHAR 0030
ENCODING 48
SWIDTH 840 0
DWIDTH 14 0
BBX 11 13 2 0
BITMAP
7F80
7F80
E0E0
E0E0
E3E0
E7E0
E7E0
FCE0
F8E0
F8E0
E0E0
7F80
7F80
ENDCHAR
STARTCHAR 0031
ENCODING 49
SWIDTH 540 0
DWIDTH 9 0
BBX 6 13 2 0
BITMAP
38
38
F8
F8
38
38
38
38
38
38
38
FC
FC
ENDCHAR
STARTCHAR 0032
ENCODING 50
SWIDTH 840 0
DWIDTH 14 0
BBX 11 13 2 0
BITMAP
7F80
7F80
E0E0
E0E0
00E0
7F80
7F80
E000
E000
E000
E0E0
FFE0
FFE0
ENDCHAR
STARTCHAR 0033
ENCODING 51
SWIDTH 840 0
DWIDTH 14 0
BBX 11 13 2 0
BITMAP
FFE0
FFE0
0380
0700
0700
1F80
1FE0
00E0
00E0
00E0
E0E0
7F80
7F80
ENDCHAR
STARTCHAR 0034
ENCODING 52
SWIDTH 840 0
DWIDTH 14 0
BBX 11 13 2 0
BITMAP
07E0
07E0
1CE0
18E0
38E0
E0E0
FFE0
FFE0
00E0
00E0
00E0
00E0
00E0
ENDCHAR
STARTCHAR 0035
ENCODING 53
SWIDTH 840 0
DWIDTH 14 0
BBX 11 13 2 0
BITMAP
FF80
FF80
E000
E000
E000
FF80
FFE0
00E0
00E0
00E0
E0E0
7F80
7F80
ENDCHAR
STARTCHAR 0036
ENCODING 54
SWIDTH 840 0
DWIDTH 14 0
BBX 11 13 2 0
BITMAP
7F80
7F80
E0E0
E0E0
E000
FF80
FF80
E0E0
E0E0
E0E0
E0E0
7F80
7F80
ENDCHAR
STARTCHAR 0037
ENCODING 55
SWIDTH 840 0
DWIDTH 14 0
BBX 11 13 2 0
BITMAP
FFE0
FFE0
E0E0
E0E0
0380
0700
0700
1C00
1C00
1C00
1C00
1C00
1C00
ENDCHAR
STARTCHAR 0038
ENCODING 56
SWIDTH 840 0
DWIDTH 14 0
BBX 11 13 2 0
BITMAP
7F80
7F80
E0E0
E0E0
E0E0
7F80
7F80
E0E0
E0E0
E0E0
E0E0
7F80
7F80
ENDCHAR
STARTCHAR 0039
ENCODING 57
SWIDTH 840 0
DWIDTH 14 0
BBX 11 13 2 0
BITMAP
7F80
7F80
E0E0
E0E0
E0E0
E0E0
7FE0
7FE0
00E0
00E0
E0E0
7F80
7F80
ENDCHAR
STARTCHAR 003A
ENCODING 58
SWIDTH 360 0
DWIDTH 6 0
BBX 3 9 2 0
BITMAP
E0
E0
E0
00
00
00
E0
E0
E0
ENDCHAR
STARTCHAR 003B
ENCODING 59
SWIDTH 360 0
DWIDTH 6 0
BBX 5 11 0 -2
BITMAP
38
38
38
00
00
00
38
38
38
E0
E0
ENDCHAR
STARTCHAR 003C
ENCODING 60
SWIDTH 660 0
DWIDTH 11 0
BBX 8 11 2 0
BITMAP
07
07
1C
38
E0
E0
38
38
1C
07
07
ENDCHAR
STARTCHAR 003D
ENCODING 61
SWIDTH 660 0
DWIDTH 11 0
BBX 8 5 2 3
BITMAP
FF
FF
00
FF
FF
ENDCHAR
STARTCHAR 003E
ENCODING 62
SWIDTH 660 0
DWIDTH 11 0
BBX 8 11 2 0
BITMAP
E0
E0
38
1C
07
07
1C
1C
38
E0
E0
ENDCHAR
STARTCHAR 003F
ENCODING 63
SWIDTH 840 0
DWIDTH 14 0
BBX 11 13 2 0
BITMAP
7F80
7F80
E0E0
E0E0
00E0
0F80
1F80
1C00
0000
0000
1C00
1C00
1C00
ENDCHAR
STARTCHAR 0040
ENCODING 64
SWIDTH 840 0
DWIDTH 14 0
BBX 11 13 2 0
BITMAP
3F80
3F80
C060
DF60
DF60
DB60
DB60
DB60
DFE0
DFE0
C000
3F80
3F80
ENDCHAR
STARTCHAR 0041
ENCODING 65
SWIDTH 840 0
DWIDTH 14 0
BBX 11 13 2 0
BITMAP
1F00
1F00
3B80
E0E0
E0E0
E0E0
FFE0
FFE0
E0E0
E0E0
E0E0
E0E0
E0E0
ENDCHAR
STARTCHAR 0042
ENCODING 66
SWIDTH 840 0
DWIDTH 14 0
BBX 11 13 2 0
BITMAP
FF80
FF80
E0E0
E0E0
E0E0
FF80
FF80
E0E0
E0E0
E0E0
E0E0
FF80
FF80
ENDCHAR
STARTCHAR 0043
ENCODING 67
SWIDTH 840 0
DWIDTH 14 0
BBX 11 13 2 0
BITMAP
1F80
1F80
38E0
38E0
E000
E000
E000
E000
E000
E000
38E0
1F80
1F80
ENDCHAR
STARTCHAR 0044
ENCODING 68
SWIDTH 840 0
DWIDTH 14 0
BBX 11 13 2 0
BITMAP
FF00
FF00
E380
E380
E0E0
E0E0
E0E0
E0E0
E0E0
E0E0
E380
FF00
FF00
ENDCHAR
STARTCHAR 0045
ENCODING 69
SWIDTH 780 0
DWIDTH 13 0
BBX 11 13 2 0
BITMAP
FFE0
FFE0
E000
E000
E000
FF00
FF00
E000
E000
E000
E000
FFE0
FFE0
ENDCHAR
STARTCHAR 0046
ENCODING 70
SWIDTH 780 0
DWIDTH 13 0
BBX 11 13 2 0
BITMAP
FFE0
FFE0
E000
E000
E000
FF00
FF00
E000
E000
E000
E000
E000
E000
ENDCHAR
STARTCHAR 0047
ENCODING 71
SWIDTH 840 0
DWIDTH 14 0
BBX 11 13 2 0
BITMAP
1F80
1F80
38E0
38E0
E000
E000
E7E0
E7E0
E0E0
E0E0
38E0
1FE0
1FE0
ENDCHAR
STARTCHAR 0048
ENCODING 72
SWIDTH 840 0
DWIDTH 14 0
BBX 11 13 2 0
BITMAP
E0E0
E0E0
E0E0
E0E0
E0E0
FFE0
FFE0
E0E0
E0E0
E0E0
E0E0
E0E0
E0E0
ENDCHAR
STARTCHAR 0049
ENCODING 73
SWIDTH 720 0
DWIDTH 12 0
BBX 9 13 2 0
BITMAP
FF80
FF80
1C00
1C00
1C00
1C00
1C00
1C00
1C00
1C00
1C00
FF80
FF80
ENDCHAR
STARTCHAR 004A
ENCODING 74
SWIDTH 840 0
DWIDTH 14 0
BBX 11 13 2 0
BITMAP
1FE0
1FE0
00E0
00E0
00E0
00E0
00E0
00E0
E0E0
E0E0
E0E0
7F80
7F80
ENDCHAR
STARTCHAR 004B
ENCODING 75
SWIDTH 840 0
DWIDTH 14 0
BBX 11 13 2 0
BITMAP
E0E0
E0E0
E380
E700
E700
FC00
FC00
E700
E380
E380
E0E0
E0E0
E0E0
ENDCHAR
STARTCHAR 004C
ENCODING 76
SWIDTH 720 0
DWIDTH 12 0
BBX 9 13 2 0
BITMAP
E000
E000
E000
E000
E000
E000
E000
E000
E000
E000
E000
FF80
FF80
ENDCHAR
STARTCHAR 004D
ENCODING 77
SWIDTH 840 0
DWIDTH 14 0
BBX 11 13 2 0
BITMAP
C060
C060
E1E0
E1E0
F3E0
FFE0
FFE0
EDE0
E1E0
E1E0
E1E0
E1E0
E1E0
ENDCHAR
STARTCHAR 004E
ENCODING 78
SWIDTH 840 0
DWIDTH 14 0
BBX 11 13 2 0
BITMAP
C0E0
C0E0
E0E0
E0E0
F8E0
FCE0
FCE0
E7E0
E3E0
E3E0
E0E0
E060
E060
ENDCHAR
STARTCHAR 004F
ENCODING 79
SWIDTH 840 0
DWIDTH 14 0
BBX 11 13 2 0
BITMAP
7F80
7F80
E0E0
E0E0
E0E0
E0E0
E0E0
E0E0
E0E0
E0E0
E0E0
7F80
7F80
ENDCHAR
STARTCHAR 0050
ENCODING 80
SWIDTH 840 0
DWIDTH 14 0
BBX 11 13 2 0
BITMAP
FF80
FF80
E0E0
E0E0
E0E0
FF80
FF80
E000
E000
E000
E000
E000
E000
ENDCHAR
STARTCHAR 0051
ENCODING 81
SWIDTH 840 0
DWIDTH 14 0
BBX 11 13 2 0
BITMAP
3F80
3F80
E0E0
E0E0
E0E0
E0E0
E0E0
E0E0
E7E0
E7E0
E380
3F60
3F60
ENDCHAR
STARTCHAR 0052
ENCODING 82
SWIDTH 840 0
DWIDTH 14 0
BBX 11 13 2 0
BITMAP
FF80
FF80
E0E0
E0E0
E0E0
FF80
FF80
E0E0
E0E0
E0E0
E0E0
E0E0
E0E0
ENDCHAR
STARTCHAR 0053
ENCODING 83
SWIDTH 840 0
DWIDTH 14 0
BBX 11 13 2 0
BITMAP
7F80
7F80
E0E0
E0E0
E000
7F80
7FE0
00E0
00E0
00E0
E0E0
7F80
7F80
ENDCHAR
STARTCHAR 0054
ENCODING 84
SWIDTH 840 0
DWIDTH 14 0
BBX 11 13 2 0
BITMAP
FFE0
FFE0
0E00
0E00
0E00
0E00
0E00
0E00
0E00
0E00
0E00
0E00
0E00
ENDCHAR
STARTCHAR 0055
ENCODING 85
SWIDTH 840 0
DWIDTH 14 0
BBX 11 13 2 0
BITMAP
E0E0
E0E0
E0E0
E0E0
E0E0
E0E0
E0E0
E0E0
E0E0
E0E0
E0E0
7F80
7F80
ENDCHAR
STARTCHAR 0056
ENCODING 86
SWIDTH 840 0
DWIDTH 14 0
BBX 11 13 2 0
BITMAP
E0E0
E0E0
E0E0
E0E0
E0E0
E0E0
E0E0
E0E0
3B80
3B80
1F00
0400
0400
ENDCHAR
STARTCHAR 0057
ENCODING 87
SWIDTH 900 0
DWIDTH 15 0
BBX 12 13 2 0
BITMAP
E670
E670
E670
E670
E670
E670
E670
E670
FFF0
FFF0
F0F0
6060
6060
ENDCHAR
STARTCHAR 0058
ENCODING 88
SWIDTH 840 0
DWIDTH 14 0
BBX 11 13 2 0
BITMAP
E0E0
E0E0
E0E0
3B80
3B80
1F00
1F00
3B80
E0E0
E0E0
E0E0
E0E0
E0E0
ENDCHAR
STARTCHAR 0059
ENCODING 89
SWIDTH 840 0
DWIDTH 14 0
BBX 11 13 2 0
BITMAP
E0E0
E0E0
E0E0
E0E0
E0E0
3B80
3B80
1F00
0E00
0E00
0E00
0E00
0E00
ENDCHAR
STARTCHAR 005A
ENCODING 90
SWIDTH 840 0
DWIDTH 14 0
BBX 11 13 2 0
BITMAP
FFE0
FFE0
00E0
00E0
0380
0700
0700
1C00
3800
3800
E000
FFE0
FFE0
ENDCHAR
STARTCHAR 005B
ENCODING 91
SWIDTH 540 0
DWIDTH 9 0
BBX 6 13 2 0
BITMAP
FC
FC
E0
E0
E0
E0
E0
E0
E0
E0
E0
FC
FC
ENDCHAR
STARTCHAR 005C
ENCODING 92
SWIDTH 840 0
DWIDTH 14 0
BBX 11 13 2 0
BITMAP
E000
E000
E000
2000
3800
1C00
1C00
0700
0380
0380
00E0
00E0
00E0
ENDCHAR
STARTCHAR 005D
ENCODING 93
SWIDTH 540 0
DWIDTH 9 0
BBX 6 13 2 0
BITMAP
FC
FC
1C
1C
1C
1C
1C
1C
1C
1C
1C
FC
FC
ENDCHAR
STARTCHAR 005E
ENCODING 94
SWIDTH 840 0
DWIDTH 14 0
BBX 11 5 2 8
BITMAP
1F00
1F00
3B80
E0E0
E0E0
ENDCHAR
STARTCHAR 005F
ENCODING 95
SWIDTH 660 0
DWIDTH 11 0
BBX 8 2 2 0
BITMAP
FF
FF
ENDCHAR
STARTCHAR 0060
ENCODING 96
SWIDTH 540 0
DWIDTH 9 0
BBX 6 5 2 8
BITMAP
E0
E0
38
1C
1C
ENDCHAR
STARTCHAR 0061
ENCODING 97
SWIDTH 840 0
DWIDTH 14 0
BBX 11 8 2 0
BITMAP
7F80
7F80
00E0
7FE0
7FE0
E0E0
7FE0
7FE0
ENDCHAR
STARTCHAR 0062
ENCODING 98
SWIDTH 840 0
DWIDTH 14 0
BBX 11 13 2 0
BITMAP
E000
E000
E000
E000
E000
FF80
FF80
E0E0
E0E0
E0E0
E0E0
FF80
FF80
ENDCHAR
STARTCHAR 0063
ENCODING 99
SWIDTH 840 0
DWIDTH 14 0
BBX 11 8 2 0
BITMAP
7F80
FFE0
E0E0
E000
E000
E0E0
7F80
7F80
ENDCHAR
STARTCHAR 0064
ENCODING 100
SWIDTH 840 0
DWIDTH 14 0
BBX 11 13 2 0
BITMAP
00E0
00E0
00E0
00E0
00E0
3FE0
3FE0
E0E0
E0E0
E0E0
E0E0
3FE0
3FE0
ENDCHAR
STARTCHAR 0065
ENCODING 101
SWIDTH 840 0
DWIDTH 14 0
BBX 11 8 2 0
BITMAP
7F80
7F80
E0E0
FFE0
FFE0
E000
7F80
7F80
ENDCHAR
STARTCHAR 0066
ENCODING 102
SWIDTH 660 0
DWIDTH 11 0
BBX 8 13 2 0
BITMAP
1F
1F
38
38
38
FF
FF
38
38
38
38
38
38
ENDCHAR
STARTCHAR 0067
ENCODING 103
SWIDTH 840 0
DWIDTH 14 0
BBX 11 13 2 -5
BITMAP
7FE0
7FE0
E0E0
E0E0
E0E0
E0E0
7FE0
7FE0
00E0
00E0
00E0
7F80
7F80
ENDCHAR
STARTCHAR 0068
ENCODING 104
SWIDTH 840 0
DWIDTH 14 0
BBX 11 13 2 0
BITMAP
E000
E000
E000
E000
E000
FF80
FF80
E0E0
E0E0
E0E0
E0E0
E0E0
E0E0
ENDCHAR
STARTCHAR 0069
ENCODING 105
SWIDTH 360 0
DWIDTH 6 0
BBX 3 13 2 0
BITMAP
E0
E0
E0
00
00
E0
E0
E0
E0
E0
E0
E0
E0
ENDCHAR
STARTCHAR 006A
ENCODING 106
SWIDTH 660 0
DWIDTH 11 0
BBX 8 15 2 -2
BITMAP
07
07
07
00
00
07
07
07
07
07
07
E7
E7
7C
7C
ENDCHAR
STARTCHAR 006B
ENCODING 107
SWIDTH 720 0
DWIDTH 12 0
BBX 9 13 2 0
BITMAP
E000
E000
E000
E000
E000
E380
E380
E700
FC00
FC00
E700
E380
E380
ENDCHAR
STARTCHAR 006C
ENCODING 108
SWIDTH 480 0
DWIDTH 8 0
BBX 5 13 2 0
BITMAP
E0
E0
E0
E0
E0
E0
E0
E0
E0
E0
E0
38
38
ENDCHAR
STARTCHAR 006D
ENCODING 109
SWIDTH 840 0
DWIDTH 14 0
BBX 11 8 2 0
BITMAP
FF80
FF80
ECE0
ECE0
ECE0
ECE0
ECE0
ECE0
ENDCHAR
STARTCHAR 006E
ENCODING 110
SWIDTH 840 0
DWIDTH 14 0
BBX 11 8 2 0
BITMAP
FF80
FF80
E0E0
E0E0
E0E0
E0E0
E0E0
E0E0
ENDCHAR
STARTCHAR 006F
ENCODING 111
SWIDTH 840 0
DWIDTH 14 0
BBX 11 8 2 0
BITMAP
7F80
7F80
E0E0
E0E0
E0E0
E0E0
7F80
7F80
ENDCHAR
STARTCHAR 0070
ENCODING 112
SWIDTH 840 0
DWIDTH 14 0
BBX 11 13 2 -5
BITMAP
FF80
FF80
E0E0
E0E0
E0E0
E0E0
FF80
FF80
E000
E000
E000
E000
E000
ENDCHAR
STARTCHAR 0071
ENCODING 113
SWIDTH 840 0
DWIDTH 14 0
BBX 11 13 2 -5
BITMAP
3FE0
3FE0
E0E0
E0E0
E0E0
E0E0
3FE0
3FE0
00E0
00E0
00E0
00E0
00E0
ENDCHAR
STARTCHAR 0072
ENCODING 114
SWIDTH 720 0
DWIDTH 12 0
BBX 9 8 2 0
BITMAP
EF80
FF80
F000
E000
E000
E000
E000
E000
ENDCHAR
STARTCHAR 0073
ENCODING 115
SWIDTH 840 0
DWIDTH 14 0
BBX 11 8 2 0
BITMAP
7F80
FF80
E000
7F80
7F80
00E0
FF80
FF80
ENDCHAR
STARTCHAR 0074
ENCODING 116
SWIDTH 660 0
DWIDTH 11 0
BBX 8 13 2 0
BITMAP
38
38
38
38
38
FF
FF
38
38
38
38
1F
1F
ENDCHAR
STARTCHAR 0075
ENCODING 117
SWIDTH 840 0
DWIDTH 14 0
BBX 11 8 2 0
BITMAP
E0E0
E0E0
E0E0
E0E0
E0E0
E0E0
7F80
7F80
ENDCHAR
STARTCHAR 0076
ENCODING 118
SWIDTH 840 0
DWIDTH 14 0
BBX 11 8 2 0
BITMAP
E0E0
E0E0
E0E0
E0E0
E0E0
3B80
1F00
1F00
ENDCHAR
STARTCHAR 0077
ENCODING 119
SWIDTH 840 0
DWIDTH 14 0
BBX 11 8 2 0
BITMAP
E4E0
E4E0
E4E0
E4E0
E4E0
E4E0
3B80
3B80
ENDCHAR
STARTCHAR 0078
ENCODING 120
SWIDTH 840 0
DWIDTH 14 0
BBX 11 8 2 0
BITMAP
E0E0
E0E0
3BC0
3FC0
1F00
3FC0
E0E0
E0E0
ENDCHAR
STARTCHAR 0079
ENCODING 121
SWIDTH 840 0
DWIDTH 14 0
BBX 11 13 2 -5
BITMAP
E0E0
E0E0
E0E0
E0E0
E0E0
E0E0
7FE0
7FE0
00E0
00E0
00E0
7F80
7F80
ENDCHAR
STARTCHAR 007A
ENCODING 122
SWIDTH 840 0
DWIDTH 14 0
BBX 11 8 2 0
BITMAP
FFE0
FFE0
0F80
1F00
1F00
7C00
FFE0
FFE0
ENDCHAR
STARTCHAR 007B
ENCODING 123
SWIDTH 540 0
DWIDTH 9 0
BBX 6 13 2 0
BITMAP
1C
1C
38
38
38
38
E0
38
38
38
38
1C
1C
ENDCHAR
STARTCHAR 007C
ENCODING 124
SWIDTH 360 0
DWIDTH 6 0
BBX 3 16 2 -3
BITMAP
E0
E0
E0
E0
E0
E0
E0
E0
E0
E0
E0
E0
E0
E0
E0
E0
ENDCHAR
STARTCHAR 007D
ENCODING 125
SWIDTH 540 0
DWIDTH 9 0
BBX 6 13 2 0
BITMAP
E0
E0
38
38
38
38
1C
38
38
38
38
E0
E0
ENDCHAR
STARTCHAR 007E
ENCODING 126
SWIDTH 720 0
DWIDTH 12 0
BBX 9 5 2 5
BITMAP
3800
3800
DC80
0700
0700
ENDCHAR
STARTCHAR 00A1
ENCODING 161
SWIDTH 360 0
DWIDTH 6 0
BBX 3 13 2 0
BITMAP
E0
E0
E0
00
00
E0
E0
E0
E0
E0
E0
E0
E0
ENDCHAR
STARTCHAR 00A2
ENCODING 162
SWIDTH 840 0
DWIDTH 14 0
BBX 11 11 2 -1
BITMAP
0C00
0C00
7F80
FFE0
ECE0
EC00
EC00
ECE0
7F80
7F80
0C00
ENDCHAR
STARTCHAR 00A3
ENCODING 163
SWIDTH 840 0
DWIDTH 14 0
BBX 11 13 2 0
BITMAP
1F80
1F80
38E0
38E0
3800
FF80
FF80
3800
3800
3800
3800
FFE0
FFE0
ENDCHAR
STARTCHAR 00A4
ENCODING 164
SWIDTH 780 0
DWIDTH 13 0
BBX 10 8 2 2
BITMAP
DE40
DE40
2180
2180
2180
2180
DE40
DE40
ENDCHAR
STARTCHAR 00A5
ENCODING 165
SWIDTH 840 0
DWIDTH 14 0
BBX 11 13 2 0
BITMAP
E0E0
E0E0
E0E0
E0E0
E0E0
3B80
3B80
FFE0
FFE0
0E00
FFE0
FFE0
0E00
ENDCHAR
STARTCHAR 00A6
ENCODING 166
SWIDTH 300 0
DWIDTH 5 0
BBX 2 21 2 -5
BITMAP
C0
C0
C0
C0
C0
C0
C0
C0
C0
00
00
00
C0
C0
C0
C0
C0
C0
C0
C0
C0
ENDCHAR
STARTCHAR 00A7
ENCODING 167
SWIDTH 780 0
DWIDTH 13 0
BBX 10 13 2 0
BITMAP
7F80
7F80
E1C0
E1C0
FE00
FE00
6180
1F80
1FC0
01C0
E1C0
7F80
7F80
ENDCHAR
STARTCHAR 00A8
ENCODING 168
SWIDTH 660 0
DWIDTH 11 0
BBX 8 3 2 10
BITMAP
E7
E7
E7
ENDCHAR
STARTCHAR 00A9
ENCODING 169
SWIDTH 1020 0
DWIDTH 17 0
BBX 14 13 2 0
BITMAP
7FF0
7FF0
E01C
E7DC
E7DC
EE1C
EE1C
EE1C
E7DC
E7DC
E01C
7FF0
7FF0
ENDCHAR
STARTCHAR 00AA
ENCODING 170
SWIDTH 540 0
DWIDTH 9 0
BBX 6 9 2 4
BITMAP
38
38
04
3C
3C
C4
C4
3C
3C
ENDCHAR
STARTCHAR 00AB
ENCODING 171
SWIDTH 1020 0
DWIDTH 17 0
BBX 14 11 2 0
BITMAP
071C
071C
1C70
38E0
E380
E380
38E0
38E0
1C70
071C
071C
ENDCHAR
STARTCHAR 00AE
ENCODING 174
SWIDTH 720 0
DWIDTH 12 0
BBX 9 10 2 3
BITMAP
3F00
3F00
C080
DE80
DE80
DE80
DE80
D680
3F00
3F00
ENDCHAR
STARTCHAR 00B1
ENCODING 177
SWIDTH 720 0
DWIDTH 12 0
BBX 9 11 2 1
BITMAP
1C00
1C00
1C00
FF80
FF80
1C00
1C00
1C00
0000
FF80
FF80
ENDCHAR
STARTCHAR 00B5
ENCODING 181
SWIDTH 780 0
DWIDTH 13 0
BBX 11 13 1 -5
BITMAP
E060
E060
E060
E060
E060
F9E0
E760
E760
E000
E000
E000
E000
E000
ENDCHAR
STARTCHAR 00B6
ENCODING 182
SWIDTH 840 0
DWIDTH 14 0
BBX 11 13 2 0
BITMAP
7FE0
7FE0
FF60
FF60
FF60
7F60
7F60
0360
0360
0360
0360
0360
03E0
ENDCHAR
STARTCHAR 00BB
ENCODING 187
SWIDTH 1020 0
DWIDTH 17 0
BBX 14 11 2 0
BITMAP
E380
E380
38E0
1C70
071C
071C
1C70
1C70
38E0
E380
E380
ENDCHAR
STARTCHAR 00BF
ENCODING 191
SWIDTH 840 0
DWIDTH 14 0
BBX 11 13 2 0
BITMAP
0700
0700
0700
0000
0000
0700
7F00
7C00
E000
E000
E0E0
7F80
7F80
ENDCHAR
STARTCHAR 00C0
ENCODING 192
SWIDTH 840 0
DWIDTH 14 0
BBX 11 18 2 0
BITMAP
3800
3800
0E00
0E00
0000
1F00
1F00
3B80
E0E0
E0E0
E0E0
FFE0
FFE0
E0E0
E0E0
E0E0
E0E0
E0E0
ENDCHAR
STARTCHAR 00C1
ENCODING 193
SWIDTH 840 0
DWIDTH 14 0
BBX 11 18 2 0
BITMAP
0700
0700
0E00
0E00
0000
1F00
1F00
3B80
E0E0
E0E0
E0E0
FFE0
FFE0
E0E0
E0E0
E0E0
E0E0
E0E0
ENDCHAR
STARTCHAR 00C2
ENCODING 194
SWIDTH 840 0
DWIDTH 14 0
BBX 11 18 2 0
BITMAP
1F00
1F00
3B80
3B80
0000
1F00
1F00
3B80
E0E0
E0E0
E0E0
FFE0
FFE0
E0E0
E0E0
E0E0
E0E0
E0E0
ENDCHAR
STARTCHAR 00C3
ENCODING 195
SWIDTH 840 0
DWIDTH 14 0
BBX 11 18 2 0
BITMAP
0D80
0D80
3200
3200
0000
1F00
1F00
3B80
E0E0
E0E0
E0E0
FFE0
FFE0
E0E0
E0E0
E0E0
E0E0
E0E0
ENDCHAR
STARTCHAR 00C4
ENCODING 196
SWIDTH 840 0
DWIDTH 14 0
BBX 11 18 2 0
BITMAP
3B80
3B80
3B80
0000
0000
1F00
1F00
3B80
E0E0
E0E0
E0E0
FFE0
FFE0
E0E0
E0E0
E0E0
E0E0
E0E0
ENDCHAR
STARTCHAR 00C5
ENCODING 197
SWIDTH 840 0
DWIDTH 14 0
BBX 11 18 2 0
BITMAP
0400
0400
1B00
1B00
0400
1F00
1F00
3B80
E0E0
E0E0
E0E0
FFE0
FFE0
E0E0
E0E0
E0E0
E0E0
E0E0
ENDCHAR
STARTCHAR 00C6
ENCODING 198
SWIDTH 1080 0
DWIDTH 18 0
BBX 15 13 2 0
BITMAP
1FFE
1FFE
3B80
E380
E380
E3FC
FFFC
FF80
E380
E380
E380
E3FE
E3FE
ENDCHAR
STARTCHAR 00C7
ENCODING 199
SWIDTH 840 0
DWIDTH 14 0
BBX 11 16 2 -3
BITMAP
1F80
1F80
38E0
38E0
E000
E000
E000
E000
E000
E000
38E0
1F80
1F80
0380
1F00
1F00
ENDCHAR
STARTCHAR 00C8
ENCODING 200
SWIDTH 780 0
DWIDTH 13 0
BBX 11 18 2 0
BITMAP
3800
3800
0E00
0E00
0000
FFE0
FFE0
E000
E000
E000
FF00
FF00
E000
E000
E000
E000
FFE0
FFE0
ENDCHAR
STARTCHAR 00C9
ENCODING 201
SWIDTH 780 0
DWIDTH 13 0
BBX 11 18 2 0
BITMAP
0700
0700
0E00
0E00
0000
FFE0
FFE0
E000
E000
E000
FF00
FF00
E000
E000
E000
E000
FFE0
FFE0
ENDCHAR
STARTCHAR 00CA
ENCODING 202
SWIDTH 780 0
DWIDTH 13 0
BBX 11 18 2 0
BITMAP
1F00
1F00
3B80
3B80
0000
FFE0
FFE0
E000
E000
E000
FF00
FF00
E000
E000
E000
E000
FFE0
FFE0
ENDCHAR
STARTCHAR 00CB
ENCODING 203
SWIDTH 780 0
DWIDTH 13 0
BBX 11 18 2 0
BITMAP
3B80
3B80
3B80
0000
0000
FFE0
FFE0
E000
E000
E000
FF00
FF00
E000
E000
E000
E000
FFE0
FFE0
ENDCHAR
STARTCHAR 00CC
ENCODING 204
SWIDTH 720 0
DWIDTH 12 0
BBX 9 18 2 0
BITMAP
3800
3800
1C00
1C00
0000
FF80
FF80
1C00
1C00
1C00
1C00
1C00
1C00
1C00
1C00
1C00
FF80
FF80
ENDCHAR
STARTCHAR 00CD
ENCODING 205
SWIDTH 720 0
DWIDTH 12 0
BBX 9 18 2 0
BITMAP
0700
0700
1C00
1C00
0000
FF80
FF80
1C00
1C00
1C00
1C00
1C00
1C00
1C00
1C00
1C00
FF80
FF80
ENDCHAR
STARTCHAR 00CE
ENCODING 206
SWIDTH 720 0
DWIDTH 12 0
BBX 9 18 2 0
BITMAP
3E00
3E00
7700
7700
0000
FF80
FF80
1C00
1C00
1C00
1C00
1C00
1C00
1C00
1C00
1C00
FF80
FF80
ENDCHAR
STARTCHAR 00CF
ENCODING 207
SWIDTH 720 0
DWIDTH 12 0
BBX 9 18 2 0
BITMAP
7700
7700
7700
0000
0000
FF80
FF80
1C00
1C00
1C00
1C00
1C00
1C00
1C00
1C00
1C00
FF80
FF80
ENDCHAR
STARTCHAR 00D0
ENCODING 208
SWIDTH 900 0
DWIDTH 15 0
BBX 12 13 2 0
BITMAP
3F80
3F80
38E0
38E0
3870
3870
FF70
FF70
3870
3870
3860
3F80
3F80
ENDCHAR
STARTCHAR 00D1
ENCODING 209
SWIDTH 840 0
DWIDTH 14 0
BBX 11 18 2 0
BITMAP
0D80
0D80
3200
3200
0000
C0E0
C0E0
E0E0
E0E0
F8E0
FCE0
FCE0
E7E0
E3E0
E3E0
E0E0
E060
E060
ENDCHAR
STARTCHAR 00D2
ENCODING 210
SWIDTH 840 0
DWIDTH 14 0
BBX 11 18 2 0
BITMAP
3800
3800
0E00
0E00
0000
7F80
7F80
E0E0
E0E0
E0E0
E0E0
E0E0
E0E0
E0E0
E0E0
E0E0
7F80
7F80
ENDCHAR
STARTCHAR 00D3
ENCODING 211
SWIDTH 840 0
DWIDTH 14 0
BBX 11 18 2 0
BITMAP
0700
0700
0E00
0E00
0000
7F80
7F80
E0E0
E0E0
E0E0
E0E0
E0E0
E0E0
E0E0
E0E0
E0E0
7F80
7F80
ENDCHAR
STARTCHAR 00D4
ENCODING 212
SWIDTH 840 0
DWIDTH 14 0
BBX 11 18 2 0
BITMAP
1F00
1F00
3B80
3B80
0000
3F80
3F80
E0E0
E0E0
E0E0
E0E0
E0E0
E0E0
E0E0
E0E0
E0E0
3F80
3F80
ENDCHAR
STARTCHAR 00D5
ENCODING 213
SWIDTH 840 0
DWIDTH 14 0
BBX 11 18 2 0
BITMAP
0D80
0D80
3200
3200
0000
7F80
7F80
E0E0
E0E0
E0E0
E0E0
E0E0
E0E0
E0E0
E0E0
E0E0
7F80
7F80
ENDCHAR
STARTCHAR 00D6
ENCODING 214
SWIDTH 840 0
DWIDTH 14 0
BBX 11 18 2 0
BITMAP
3B80
3B80
3B80
0000
0000
3F80
3F80
E0E0
E0E0
E0E0
E0E0
E0E0
E0E0
E0E0
E0E0
E0E0
3F80
3F80
ENDCHAR
STARTCHAR 00D7
ENCODING 215
SWIDTH 660 0
DWIDTH 11 0
BBX 8 8 2 3
BITMAP
C3
24
24
18
3C
24
C3
C3
ENDCHAR
STARTCHAR 00D8
ENCODING 216
SWIDTH 840 0
DWIDTH 14 0
BBX 11 13 2 0
BITMAP
3F60
3F60
E080
E3E0
E3E0
ECE0
ECE0
ECE0
F0E0
F0E0
20E0
DF00
DF00
ENDCHAR
STARTCHAR 00D9
ENCODING 217
SWIDTH 840 0
DWIDTH 14 0
BBX 11 18 2 0
BITMAP
3800
3800
0E00
0E00
0000
E0E0
E0E0
E0E0
E0E0
E0E0
E0E0
E0E0
E0E0
E0E0
E0E0
E0E0
7F80
7F80
ENDCHAR
STARTCHAR 00DA
ENCODING 218
SWIDTH 840 0
DWIDTH 14 0
BBX 11 18 2 0
BITMAP
0700
0700
0E00
0E00
0000
E0E0
E0E0
E0E0
E0E0
E0E0
E0E0
E0E0
E0E0
E0E0
E0E0
E0E0
7F80
7F80
ENDCHAR
STARTCHAR 00DB
ENCODING 219
SWIDTH 840 0
DWIDTH 14 0
BBX 11 18 2 0
BITMAP
1F00
1F00
3B80
3B80
0000
E0E0
E0E0
E0E0
E0E0
E0E0
E0E0
E0E0
E0E0
E0E0
E0E0
E0E0
3F80
3F80
ENDCHAR
STARTCHAR 00DC
ENCODING 220
SWIDTH 840 0
DWIDTH 14 0
BBX 11 18 2 0
BITMAP
3B80
3B80
3B80
0000
0000
E0E0
E0E0
E0E0
E0E0
E0E0
E0E0
E0E0
E0E0
E0E0
E0E0
E0E0
3F80
3F80
ENDCHAR
STARTCHAR 00DD
ENCODING 221
SWIDTH 840 0
DWIDTH 14 0
BBX 11 18 2 0
BITMAP
0700
0700
0E00
0E00
0000
E0E0
E0E0
E0E0
E0E0
E0E0
3B80
3B80
1F00
0E00
0E00
0E00
0E00
0E00
ENDCHAR
STARTCHAR 00DE
ENCODING 222
SWIDTH 840 0
DWIDTH 14 0
BBX 11 13 2 0
BITMAP
E000
E000
FF80
FF80
E0E0
E0E0
E0E0
E0E0
E0E0
E0E0
FF80
FF80
E000
ENDCHAR
STARTCHAR 00DF
ENCODING 223
SWIDTH 840 0
DWIDTH 14 0
BBX 11 13 2 0
BITMAP
FF00
FF00
E380
E380
E380
E700
E700
E700
E380
E380
ECE0
E780
E780
ENDCHAR
STARTCHAR 00E0
ENCODING 224
SWIDTH 840 0
DWIDTH 14 0
BBX 11 13 2 0
BITMAP
3800
3800
0E00
0E00
0000
7F80
7F80
00E0
7FE0
7FE0
E0E0
7FE0
7FE0
ENDCHAR
STARTCHAR 00E1
ENCODING 225
SWIDTH 840 0
DWIDTH 14 0
BBX 11 13 2 0
BITMAP
0700
0700
0E00
0E00
0000
7F80
7F80
00E0
7FE0
7FE0
E0E0
7FE0
7FE0
ENDCHAR
STARTCHAR 00E2
ENCODING 226
SWIDTH 840 0
DWIDTH 14 0
BBX 11 13 2 0
BITMAP
1F00
1F00
3B80
3B80
0000
3F80
3F80
00E0
3FE0
3FE0
E0E0
3FE0
3FE0
ENDCHAR
STARTCHAR 00E3
ENCODING 227
SWIDTH 840 0
DWIDTH 14 0
BBX 11 13 2 0
BITMAP
0D80
0D80
3200
3200
0000
7F80
7F80
00E0
7FE0
7FE0
E0E0
7FE0
7FE0
ENDCHAR
STARTCHAR 00E4
ENCODING 228
SWIDTH 840 0
DWIDTH 14 0
BBX 11 13 2 0
BITMAP
3B80
3B80
3B80
0000
0000
3F80
3F80
00E0
3FE0
3FE0
E0E0
3FE0
3FE0
ENDCHAR
STARTCHAR 00E5
ENCODING 229
SWIDTH 900 0
DWIDTH 15 0
BBX 12 13 2 0
BITMAP
0400
0400
1B80
0400
0400
7F80
7F80
0070
7FF0
7FF0
E070
7FF0
7FF0
ENDCHAR
STARTCHAR 00E6
ENCODING 230
SWIDTH 1380 0
DWIDTH 23 0
BBX 20 8 2 0
BITMAP
7FBFC0
7FFFF0
01F070
7FFFF0
7FFFF0
E1F000
7FBFC0
7FBFC0
ENDCHAR
STARTCHAR 00E7
ENCODING 231
SWIDTH 840 0
DWIDTH 14 0
BBX 11 11 2 -3
BITMAP
7F80
FFE0
E0E0
E000
E000
E0E0
7F80
7F80
0380
1F00
1F00
ENDCHAR
STARTCHAR 00E8
ENCODING 232
SWIDTH 840 0
DWIDTH 14 0
BBX 11 13 2 0
BITMAP
3800
3800
0E00
0E00
0000
7F80
7F80
E0E0
FFE0
FFE0
E000
7F80
7F80
ENDCHAR
STARTCHAR 00E9
ENCODING 233
SWIDTH 840 0
DWIDTH 14 0
BBX 11 13 2 0
BITMAP
0700
0700
0E00
0E00
0000
7F80
7F80
E0E0
FFE0
FFE0
E000
7F80
7F80
ENDCHAR
STARTCHAR 00EA
ENCODING 234
SWIDTH 840 0
DWIDTH 14 0
BBX 11 13 2 0
BITMAP
1F00
1F00
3B80
3B80
0000
3F80
3F80
E0E0
FFE0
FFE0
E000
3F80
3F80
ENDCHAR
STARTCHAR 00EB
ENCODING 235
SWIDTH 840 0
DWIDTH 14 0
BBX 11 13 2 0
BITMAP
3B80
3B80
3B80
0000
0000
3F80
3F80
E0E0
FFE0
FFE0
E000
3F80
3F80
ENDCHAR
STARTCHAR 00EC
ENCODING 236
SWIDTH 360 0
DWIDTH 6 0
BBX 5 13 0 0
BITMAP
E0
E0
38
38
00
38
38
38
38
38
38
38
38
ENDCHAR
STARTCHAR 00ED
ENCODING 237
SWIDTH 480 0
DWIDTH 8 0
BBX 5 13 2 0
BITMAP
38
38
E0
E0
00
E0
E0
E0
E0
E0
E0
E0
E0
ENDCHAR
STARTCHAR 00EE
ENCODING 238
SWIDTH 480 0
DWIDTH 8 0
BBX 8 13 -1 0
BITMAP
7C
7C
E7
E7
00
38
38
38
38
38
38
38
38
ENDCHAR
STARTCHAR 00EF
ENCODING 239
SWIDTH 480 0
DWIDTH 8 0
BBX 8 13 -1 0
BITMAP
E7
E7
E7
00
00
38
38
38
38
38
38
38
38
ENDCHAR
STARTCHAR 00F0
ENCODING 240
SWIDTH 900 0
DWIDTH 15 0
BBX 12 13 2 0
BITMAP
00E0
00E0
0FF0
0FF0
00E0
7FE0
FFE0
E0E0
E0E0
E0E0
E0E0
7F80
7F80
ENDCHAR
STARTCHAR 00F1
ENCODING 241
SWIDTH 840 0
DWIDTH 14 0
BBX 11 13 2 0
BITMAP
0D80
0D80
3200
3200
0000
FFC0
FFC0
E0E0
E0E0
E0E0
E0E0
E0E0
E0E0
ENDCHAR
STARTCHAR 00F2
ENCODING 242
SWIDTH 840 0
DWIDTH 14 0
BBX 11 13 2 0
BITMAP
3800
3800
0E00
0E00
0000
7F80
7F80
E0E0
E0E0
E0E0
E0E0
7F80
7F80
ENDCHAR
STARTCHAR 00F3
ENCODING 243
SWIDTH 840 0
DWIDTH 14 0
BBX 11 13 2 0
BITMAP
0700
0700
0E00
0E00
0000
7F80
7F80
E0E0
E0E0
E0E0
E0E0
7F80
7F80
ENDCHAR
STARTCHAR 00F4
ENCODING 244
SWIDTH 840 0
DWIDTH 14 0
BBX 11 13 2 0
BITMAP
1F00
1F00
3B80
3B80
0000
3F80
3F80
E0E0
E0E0
E0E0
E0E0
3F80
3F80
ENDCHAR
STARTCHAR 00F5
ENCODING 245
SWIDTH 840 0
DWIDTH 14 0
BBX 11 13 2 0
BITMAP
0D80
0D80
3200
3200
0000
7F80
7F80
E0E0
E0E0
E0E0
E0E0
7F80
7F80
ENDCHAR
STARTCHAR 00F6
ENCODING 246
SWIDTH 840 0
DWIDTH 14 0
BBX 11 13 2 0
BITMAP
3B80
3B80
3B80
0000
0000
3F80
3F80
E0E0
E0E0
E0E0
E0E0
3F80
3F80
ENDCHAR
STARTCHAR 00F7
ENCODING 247
SWIDTH 720 0
DWIDTH 12 0
BBX 9 8 2 2
BITMAP
1C00
1C00
0000
FF80
FF80
0000
1C00
1C00
ENDCHAR
STARTCHAR 00F8
ENCODING 248
SWIDTH 840 0
DWIDTH 14 0
BBX 11 8 2 0
BITMAP
3F60
3FE0
E380
E6E0
ECE0
38E0
FF80
DF80
ENDCHAR
STARTCHAR 00F9
ENCODING 249
SWIDTH 840 0
DWIDTH 14 0
BBX 11 13 2 0
BITMAP
3800
3800
0E00
0E00
0000
E0E0
E0E0
E0E0
E0E0
E0E0
E0E0
7FE0
7FE0
ENDCHAR
STARTCHAR 00FA
ENCODING 250
SWIDTH 840 0
DWIDTH 14 0
BBX 11 13 2 0
BITMAP
0700
0700
0E00
0E00
0000
E0E0
E0E0
E0E0
E0E0
E0E0
E0E0
3FE0
3FE0
ENDCHAR
STARTCHAR 00FB
ENCODING 251
SWIDTH 840 0
DWIDTH 14 0
BBX 11 13 2 0
BITMAP
1F00
1F00
3B80
3B80
0000
E0E0
E0E0
E0E0
E0E0
E0E0
E0E0
3FE0
3FE0
ENDCHAR
STARTCHAR 00FC
ENCODING 252
SWIDTH 840 0
DWIDTH 14 0
BBX 11 13 2 0
BITMAP
3B80
3B80
3B80
0000
0000
E0E0
E0E0
E0E0
E0E0
E0E0
E0E0
3FE0
3FE0
ENDCHAR
STARTCHAR 00FD
ENCODING 253
SWIDTH 840 0
DWIDTH 14 0
BBX 11 18 2 -5
BITMAP
0700
0700
0E00
0E00
0000
E0E0
E0E0
E0E0
E0E0
E0E0
E0E0
7FE0
7FE0
00E0
00E0
00E0
7F80
7F80
ENDCHAR
STARTCHAR 00FE
ENCODING 254
SWIDTH 840 0
DWIDTH 14 0
BBX 11 18 2 -5
BITMAP
E000
E000
E000
E000
E000
FF80
FF80
E0E0
E0E0
E0E0
E0E0
FF80
FF80
E000
E000
E000
E000
E000
ENDCHAR
STARTCHAR 00FF
ENCODING 255
SWIDTH 840 0
DWIDTH 14 0
BBX 11 18 2 -5
BITMAP
3B80
3B80
3B80
0000
0000
E0E0
E0E0
E0E0
E0E0
E0E0
E0E0
3FE0
3FE0
00E0
00E0
00E0
3F80
3F80
ENDCHAR
STARTCHAR 0178
ENCODING 376
SWIDTH 840 0
DWIDTH 14 0
BBX 11 18 2 0
BITMAP
3B80
3B80
3B80
0000
0000
E0E0
E0E0
E0E0
E0E0
E0E0
3B80
3B80
1F00
0E00
0E00
0E00
0E00
0E00
ENDCHAR
STARTCHAR 0391
ENCODING 913
SWIDTH 840 0
DWIDTH 14 0
BBX 11 13 2 0
BITMAP
1F00
1F00
3B80
E0E0
E0E0
E0E0
FFE0
FFE0
E0E0
E0E0
E0E0
E0E0
E0E0
ENDCHAR
STARTCHAR 0392
ENCODING 914
SWIDTH 840 0
DWIDTH 14 0
BBX 11 13 2 0
BITMAP
FF80
FF80
E0E0
E0E0
E0E0
FF80
FF80
E0E0
E0E0
E0E0
E0E0
FF80
FF80
ENDCHAR
STARTCHAR 0393
ENCODING 915
SWIDTH 720 0
DWIDTH 12 0
BBX 9 13 2 0
BITMAP
FF80
FF80
E000
E000
E000
E000
E000
E000
E000
E000
E000
E000
E000
ENDCHAR
STARTCHAR 0394
ENCODING 916
SWIDTH 1080 0
DWIDTH 18 0
BBX 15 13 2 0
BITMAP
0380
0380
06C0
06C0
1C70
1C70
1C70
381C
381C
381C
381C
FFFE
FFFE
ENDCHAR
STARTCHAR 0395
ENCODING 917
SWIDTH 780 0
DWIDTH 13 0
BBX 11 13 2 0
BITMAP
FFE0
FFE0
E000
E000
E000
FF00
FF00
E000
E000
E000
E000
FFE0
FFE0
ENDCHAR
STARTCHAR 0396
ENCODING 918
SWIDTH 840 0
DWIDTH 14 0
BBX 11 13 2 0
BITMAP
FFE0
FFE0
00E0
00E0
0380
0700
0700
1C00
3800
3800
E000
FFE0
FFE0
ENDCHAR
STARTCHAR 0397
ENCODING 919
SWIDTH 840 0
DWIDTH 14 0
BBX 11 13 2 0
BITMAP
E0E0
E0E0
E0E0
E0E0
E0E0
FFE0
FFE0
E0E0
E0E0
E0E0
E0E0
E0E0
E0E0
ENDCHAR
STARTCHAR 0398
ENCODING 920
SWIDTH 840 0
DWIDTH 14 0
BBX 11 13 2 0
BITMAP
7F80
7F80
E0E0
E0E0
E0E0
E0E0
EEE0
EEE0
E0E0
E0E0
E0E0
7F80
7F80
ENDCHAR
STARTCHAR 0399
ENCODING 921
SWIDTH 720 0
DWIDTH 12 0
BBX 9 13 2 0
BITMAP
FF80
FF80
1C00
1C00
1C00
1C00
1C00
1C00
1C00
1C00
1C00
FF80
FF80
ENDCHAR
STARTCHAR 039A
ENCODING 922
SWIDTH 840 0
DWIDTH 14 0
BBX 11 13 2 0
BITMAP
E0E0
E0E0
E380
E700
E700
FC00
FC00
E700
E380
E380
E0E0
E0E0
E0E0
ENDCHAR
STARTCHAR 039B
ENCODING 923
SWIDTH 1080 0
DWIDTH 18 0
BBX 15 13 2 0
BITMAP
0380
0380
06C0
06C0
1C70
1C70
1C70
381C
381C
381C
200C
E00E
E00E
ENDCHAR
STARTCHAR 039C
ENCODING 924
SWIDTH 840 0
DWIDTH 14 0
BBX 11 13 2 0
BITMAP
C060
C060
E1E0
E1E0
F3E0
FFE0
FFE0
EDE0
E1E0
E1E0
E1E0
E1E0
E1E0
ENDCHAR
STARTCHAR 039D
ENCODING 925
SWIDTH 840 0
DWIDTH 14 0
BBX 11 13 2 0
BITMAP
C0E0
C0E0
E0E0
E0E0
F8E0
FCE0
FCE0
E7E0
E3E0
E3E0
E0E0
E060
E060
ENDCHAR
STARTCHAR 039E
ENCODING 926
SWIDTH 840 0
DWIDTH 14 0
BBX 11 13 2 0
BITMAP
FFE0
FFE0
0000
0000
0000
0000
3F00
3F00
0000
0000
0000
FFE0
FFE0
ENDCHAR
STARTCHAR 039F
ENCODING 927
SWIDTH 840 0
DWIDTH 14 0
BBX 11 13 2 0
BITMAP
7F80
7F80
E0E0
E0E0
E0E0
E0E0
E0E0
E0E0
E0E0
E0E0
E0E0
7F80
7F80
ENDCHAR
STARTCHAR 03A0
ENCODING 928
SWIDTH 1020 0
DWIDTH 17 0
BBX 14 13 2 0
BITMAP
FFFC
FFFC
3870
3870
3870
3870
3870
3870
3870
3870
3870
3870
3870
ENDCHAR
STARTCHAR 03A1
ENCODING 929
SWIDTH 840 0
DWIDTH 14 0
BBX 11 13 2 0
BITMAP
FF80
FF80
E0E0
E0E0
E0E0
FF80
FF80
E000
E000
E000
E000
E000
E000
ENDCHAR
STARTCHAR 03A3
ENCODING 931
SWIDTH 780 0
DWIDTH 13 0
BBX 11 13 2 0
BITMAP
FFE0
FFE0
E000
E000
3800
3800
1C00
3800
3800
E000
E000
FFE0
FFE0
ENDCHAR
STARTCHAR 03A4
ENCODING 932
SWIDTH 840 0
DWIDTH 14 0
BBX 11 13 2 0
BITMAP
FFE0
FFE0
1E00
1E00
1E00
1E00
1E00
1E00
1E00
1E00
1E00
1E00
1E00
ENDCHAR
STARTCHAR 03A5
ENCODING 933
SWIDTH 1020 0
DWIDTH 17 0
BBX 14 13 2 0
BITMAP
E01C
E01C
3870
3870
3870
1CE0
1CE0
0780
0700
0700
0700
0700
0700
ENDCHAR
STARTCHAR 03A6
ENCODING 934
SWIDTH 1020 0
DWIDTH 17 0
BBX 14 13 2 0
BITMAP
0700
0700
7FF0
7FF0
E71C
E71C
E71C
E71C
E71C
E71C
7FF0
7FF0
0700
ENDCHAR
STARTCHAR 03A7
ENCODING 935
SWIDTH 840 0
DWIDTH 14 0
BBX 11 13 2 0
BITMAP
E0E0
E0E0
E0E0
3B80
3B80
1F00
1F00
3B80
E0E0
E0E0
E0E0
E0E0
E0E0
ENDCHAR
STARTCHAR 03A8
ENCODING 936
SWIDTH 1200 0
DWIDTH 20 0
BBX 17 13 2 0
BITMAP
E1C380
E1C380
39CE00
39CE00
1DDC00
07F000
07F000
03E000
01C000
01C000
01C000
01C000
01C000
ENDCHAR
STARTCHAR 03A9
ENCODING 937
SWIDTH 1200 0
DWIDTH 20 0
BBX 17 13 2 0
BITMAP
1FFC00
1FFC00
380E00
380E00
E00380
E00380
E00380
380E00
1C1C00
1C1C00
077000
FF7F80
FF7F80
ENDCHAR
STARTCHAR 03B1
ENCODING 945
SWIDTH 840 0
DWIDTH 14 0
BBX 11 8 2 0
BITMAP
7CE0
7CE0
E780
E380
E380
E780
7CE0
7CE0
ENDCHAR
STARTCHAR 03B2
ENCODING 946
SWIDTH 840 0
DWIDTH 14 0
BBX 11 18 2 -5
BITMAP
1F80
1F80
38E0
38E0
E0E0
E0E0
E780
E780
E0E0
E0E0
FB80
E700
E700
E000
E000
E000
E000
E000
ENDCHAR
STARTCHAR 0401
ENCODING 1025
SWIDTH 780 0
DWIDTH 13 0
BBX 11 18 2 0
BITMAP
3B80
3B80
3B80
0000
0000
FFE0
FFE0
E000
E000
E000
FF00
FF00
E000
E000
E000
E000
FFE0
FFE0
ENDCHAR
STARTCHAR 0404
ENCODING 1028
SWIDTH 840 0
DWIDTH 14 0
BBX 11 13 2 0
BITMAP
1F80
1F80
38E0
38E0
E000
E000
FF00
FF00
E000
E000
38E0
1F80
1F80
ENDCHAR
STARTCHAR 0406
ENCODING 1030
SWIDTH 720 0
DWIDTH 12 0
BBX 9 13 2 0
BITMAP
FF80
FF80
1C00
1C00
1C00
1C00
1C00
1C00
1C00
1C00
1C00
FF80
FF80
ENDCHAR
STARTCHAR 0407
ENCODING 1031
SWIDTH 780 0
DWIDTH 13 0
BBX 10 18 2 0
BITMAP
7700
7700
7700
0000
0000
FF80
FF80
1E00
1E00
1E00
1E00
1E00
1E00
1E00
1E00
1E00
FFC0
FFC0
ENDCHAR
STARTCHAR 0409
ENCODING 1033
SWIDTH 1200 0
DWIDTH 20 0
BBX 17 13 2 0
BITMAP
1FE000
1FE000
38E000
38E000
38E000
38FF00
38FF00
38E380
38E380
38E380
38E380
E0FF00
E0FF00
ENDCHAR
STARTCHAR 040A
ENCODING 1034
SWIDTH 1200 0
DWIDTH 20 0
BBX 17 13 2 0
BITMAP
E0E000
E0E000
E0E000
E0E000
E0E000
FFFE00
FFFE00
E0E380
E0E380
E0E380
E0E380
E0FE00
E0FE00
ENDCHAR
STARTCHAR 0410
ENCODING 1040
SWIDTH 840 0
DWIDTH 14 0
BBX 11 13 2 0
BITMAP
1F00
1F00
3B80
E0E0
E0E0
E0E0
FFE0
FFE0
E0E0
E0E0
E0E0
E0E0
E0E0
ENDCHAR
STARTCHAR 0411
ENCODING 1041
SWIDTH 840 0
DWIDTH 14 0
BBX 11 13 2 0
BITMAP
FF80
FF80
E000
E000
E000
FF80
FF80
E0E0
E0E0
E0E0
E0E0
FF80
FF80
ENDCHAR
STARTCHAR 0412
ENCODING 1042
SWIDTH 840 0
DWIDTH 14 0
BBX 11 13 2 0
BITMAP
FF80
FF80
E0E0
E0E0
E0E0
FF80
FF80
E0E0
E0E0
E0E0
E0E0
FF80
FF80
ENDCHAR
STARTCHAR 0413
ENCODING 1043
SWIDTH 720 0
DWIDTH 12 0
BBX 9 13 2 0
BITMAP
FF80
FF80
E000
E000
E000
E000
E000
E000
E000
E000
E000
E000
E000
ENDCHAR
STARTCHAR 0414
ENCODING 1044
SWIDTH 900 0
DWIDTH 15 0
BBX 12 15 2 -2
BITMAP
1FE0
1FE0
38E0
38E0
38E0
38E0
38E0
38E0
38E0
38E0
38E0
FFF0
FFF0
E070
E070
ENDCHAR
STARTCHAR 0415
ENCODING 1045
SWIDTH 780 0
DWIDTH 13 0
BBX 11 13 2 0
BITMAP
FFE0
FFE0
E000
E000
E000
FF00
FF00
E000
E000
E000
E000
FFE0
FFE0
ENDCHAR
STARTCHAR 0416
ENCODING 1046
SWIDTH 900 0
DWIDTH 15 0
BBX 12 13 2 0
BITMAP
E770
E770
E770
E770
E770
3FE0
3FE0
E770
E770
E770
E770
E770
E770
ENDCHAR
STARTCHAR 0417
ENCODING 1047
SWIDTH 840 0
DWIDTH 14 0
BBX 11 13 2 0
BITMAP
7F80
7F80
E0E0
E0E0
00E0
00E0
0F80
00E0
00E0
00E0
E0E0
7F80
7F80
ENDCHAR
STARTCHAR 0418
ENCODING 1048
SWIDTH 840 0
DWIDTH 14 0
BBX 11 13 2 0
BITMAP
E060
E060
E0E0
E0E0
E3E0
E7E0
E7E0
FCE0
F8E0
F8E0
E0E0
C0E0
C0E0
ENDCHAR
STARTCHAR 0419
ENCODING 1049
SWIDTH 840 0
DWIDTH 14 0
BBX 11 18 2 0
BITMAP
71C0
71C0
3F00
3F00
0000
E060
E060
E1E0
E1E0
E3E0
E7E0
E7E0
FDE0
F9E0
F9E0
E1E0
C1E0
C1E0
ENDCHAR
STARTCHAR 041A
ENCODING 1050
SWIDTH 840 0
DWIDTH 14 0
BBX 11 13 2 0
BITMAP
E0E0
E0E0
E380
E700
E700
FC00
FC00
E700
E380
E380
E0E0
E0E0
E0E0
ENDCHAR
STARTCHAR 041B
ENCODING 1051
SWIDTH 840 0
DWIDTH 14 0
BBX 11 13 2 0
BITMAP
1FE0
1FE0
38E0
38E0
38E0
38E0
38E0
38E0
38E0
38E0
38E0
E0E0
E0E0
ENDCHAR
STARTCHAR 041C
ENCODING 1052
SWIDTH 840 0
DWIDTH 14 0
BBX 11 13 2 0
BITMAP
C060
C060
E1E0
E1E0
F3E0
FFE0
FFE0
EDE0
E1E0
E1E0
E1E0
E1E0
E1E0
ENDCHAR
STARTCHAR 041D
ENCODING 1053
SWIDTH 840 0
DWIDTH 14 0
BBX 11 13 2 0
BITMAP
E0E0
E0E0
E0E0
E0E0
E0E0
FFE0
FFE0
E0E0
E0E0
E0E0
E0E0
E0E0
E0E0
ENDCHAR
STARTCHAR 041E
ENCODING 1054
SWIDTH 840 0
DWIDTH 14 0
BBX 11 13 2 0
BITMAP
7F80
7F80
E0E0
E0E0
E0E0
E0E0
E0E0
E0E0
E0E0
E0E0
E0E0
7F80
7F80
ENDCHAR
STARTCHAR 041F
ENCODING 1055
SWIDTH 840 0
DWIDTH 14 0
BBX 11 13 2 0
BITMAP
FFE0
FFE0
E0E0
E0E0
E0E0
E0E0
E0E0
E0E0
E0E0
E0E0
E0E0
E0E0
E0E0
ENDCHAR
STARTCHAR 0420
ENCODING 1056
SWIDTH 840 0
DWIDTH 14 0
BBX 11 13 2 0
BITMAP
FF80
FF80
E0E0
E0E0
E0E0
FF80
FF80
E000
E000
E000
E000
E000
E000
ENDCHAR
STARTCHAR 0421
ENCODING 1057
SWIDTH 840 0
DWIDTH 14 0
BBX 11 13 2 0
BITMAP
1F80
1F80
38E0
38E0
E000
E000
E000
E000
E000
E000
38E0
1F80
1F80
ENDCHAR
STARTCHAR 0422
ENCODING 1058
SWIDTH 840 0
DWIDTH 14 0
BBX 11 13 2 0
BITMAP
FFE0
FFE0
0E00
0E00
0E00
0E00
0E00
0E00
0E00
0E00
0E00
0E00
0E00
ENDCHAR
STARTCHAR 0423
ENCODING 1059
SWIDTH 840 0
DWIDTH 14 0
BBX 11 13 2 0
BITMAP
E0E0
E0E0
E0E0
E0E0
E0E0
E0E0
7FE0
7FE0
00E0
00E0
E0E0
7F80
7F80
ENDCHAR
STARTCHAR 0424
ENCODING 1060
SWIDTH 1080 0
DWIDTH 18 0
BBX 15 13 2 0
BITMAP
0380
0380
3FFC
3FFC
E38E
E38E
E38E
E38E
E38E
E38E
3FFC
3FFC
0380
ENDCHAR
STARTCHAR 0425
ENCODING 1061
SWIDTH 840 0
DWIDTH 14 0
BBX 11 13 2 0
BITMAP
E0E0
E0E0
E0E0
3B80
3B80
1F00
1F00
3B80
E0E0
E0E0
E0E0
E0E0
E0E0
ENDCHAR
STARTCHAR 0426
ENCODING 1062
SWIDTH 900 0
DWIDTH 15 0
BBX 12 15 2 -2
BITMAP
E0E0
E0E0
E0E0
E0E0
E0E0
E0E0
E0E0
E0E0
E0E0
E0E0
E0E0
FFF0
FFF0
0070
0070
ENDCHAR
STARTCHAR 0427
ENCODING 1063
SWIDTH 840 0
DWIDTH 14 0
BBX 11 13 2 0
BITMAP
E0E0
E0E0
E0E0
E0E0
E0E0
E0E0
3FE0
3FE0
00E0
00E0
00E0
00E0
00E0
ENDCHAR
STARTCHAR 0428
ENCODING 1064
SWIDTH 960 0
DWIDTH 16 0
BBX 13 13 2 0
BITMAP
E738
E738
E738
E738
E738
E738
E738
E738
E738
E738
E738
FFF8
FFF8
ENDCHAR
STARTCHAR 0429
ENCODING 1065
SWIDTH 1080 0
DWIDTH 18 0
BBX 15 15 2 -2
BITMAP
E71C
E71C
E71C
E71C
E71C
E71C
E71C
E71C
E71C
E71C
E71C
FFFE
FFFE
000E
000E
ENDCHAR
STARTCHAR 042A
ENCODING 1066
SWIDTH 960 0
DWIDTH 16 0
BBX 13 13 2 0
BITMAP
F800
F800
3800
3800
3800
3FE0
3FE0
3838
3838
3838
3838
3FE0
3FE0
ENDCHAR
STARTCHAR 042B
ENCODING 1067
SWIDTH 1080 0
DWIDTH 18 0
BBX 15 13 2 0
BITMAP
E00E
E00E
E00E
E00E
E00E
FF8E
FF8E
E0EE
E0EE
E0EE
E0EE
FF8E
FF8E
ENDCHAR
STARTCHAR 042C
ENCODING 1068
SWIDTH 840 0
DWIDTH 14 0
BBX 11 13 2 0
BITMAP
E000
E000
E000
E000
E000
FF80
FF80
E0E0
E0E0
E0E0
E0E0
FF80
FF80
ENDCHAR
STARTCHAR 042D
ENCODING 1069
SWIDTH 840 0
DWIDTH 14 0
BBX 11 13 2 0
BITMAP
3F00
3F00
E380
E380
00E0
00E0
1FE0
1FE0
00E0
00E0
E380
3F00
3F00
ENDCHAR
STARTCHAR 042E
ENCODING 1070
SWIDTH 1140 0
DWIDTH 19 0
BBX 16 13 2 0
BITMAP
F1FE
F1FE
F707
F707
F707
F707
FF07
FF07
F707
F707
F707
F1FE
F1FE
ENDCHAR
STARTCHAR 042F
ENCODING 1071
SWIDTH 840 0
DWIDTH 14 0
BBX 11 13 2 0
BITMAP
3FE0
3FE0
E0E0
E0E0
E0E0
3FE0
3FE0
E0E0
E0E0
E0E0
E0E0
E0E0
E0E0
ENDCHAR
STARTCHAR 0430
ENCODING 1072
SWIDTH 840 0
DWIDTH 14 0
BBX 11 8 2 0
BITMAP
7F80
7F80
00E0
7FE0
7FE0
E0E0
7FE0
7FE0
ENDCHAR
STARTCHAR 0431
ENCODING 1073
SWIDTH 840 0
DWIDTH 14 0
BBX 11 13 2 0
BITMAP
7F80
FF80
E000
E000
E000
EF80
EF80
FCE0
FCE0
E0E0
E0E0
7F80
7F80
ENDCHAR
STARTCHAR 0432
ENCODING 1074
SWIDTH 840 0
DWIDTH 14 0
BBX 11 8 2 0
BITMAP
FF80
FFE0
E0E0
FF80
FF80
E0E0
FF80
FF80
ENDCHAR
STARTCHAR 0433
ENCODING 1075
SWIDTH 600 0
DWIDTH 10 0
BBX 8 8 2 0
BITMAP
FF
FF
E0
E0
E0
E0
E0
E0
ENDCHAR
STARTCHAR 0434
ENCODING 1076
SWIDTH 900 0
DWIDTH 15 0
BBX 12 10 2 -2
BITMAP
1FE0
1FE0
38E0
38E0
38E0
38E0
FFF0
FFF0
E070
E070
ENDCHAR
STARTCHAR 0435
ENCODING 1077
SWIDTH 840 0
DWIDTH 14 0
BBX 11 8 2 0
BITMAP
7F80
7F80
E0E0
FFE0
FFE0
E000
7F80
7F80
ENDCHAR
STARTCHAR 0436
ENCODING 1078
SWIDTH 900 0
DWIDTH 15 0
BBX 12 8 2 0
BITMAP
E770
E770
E770
3FE0
3FE0
E770
E770
E770
ENDCHAR
STARTCHAR 0437
ENCODING 1079
SWIDTH 840 0
DWIDTH 14 0
BBX 11 8 2 0
BITMAP
7F80
FFE0
E0E0
0F80
0F80
E0E0
7F80
7F80
ENDCHAR
STARTCHAR 0438
ENCODING 1080
SWIDTH 840 0
DWIDTH 14 0
BBX 11 8 2 0
BITMAP
E0E0
E3E0
E3E0
E7E0
FCE0
FCE0
F8E0
E0E0
ENDCHAR
STARTCHAR 0439
ENCODING 1081
SWIDTH 840 0
DWIDTH 14 0
BBX 11 13 2 0
BITMAP
71C0
71C0
3F00
3F00
0000
E0E0
E3E0
E3E0
E7E0
FCE0
FCE0
F8E0
E0E0
ENDCHAR
STARTCHAR 043A
ENCODING 1082
SWIDTH 720 0
DWIDTH 12 0
BBX 9 8 2 0
BITMAP
E380
E380
E700
FC00
FC00
E700
E380
E380
ENDCHAR
STARTCHAR 043B
ENCODING 1083
SWIDTH 840 0
DWIDTH 14 0
BBX 11 8 2 0
BITMAP
1FE0
1FE0
38E0
38E0
38E0
38E0
E0E0
E0E0
ENDCHAR
STARTCHAR 043C
ENCODING 1084
SWIDTH 840 0
DWIDTH 14 0
BBX 11 8 2 0
BITMAP
E0E0
E0E0
F3E0
FFE0
FFE0
ECE0
E0E0
E0E0
ENDCHAR
STARTCHAR 043D
ENCODING 1085
SWIDTH 840 0
DWIDTH 14 0
BBX 11 8 2 0
BITMAP
E0E0
E0E0
E0E0
FFE0
FFE0
E0E0
E0E0
E0E0
ENDCHAR
STARTCHAR 043E
ENCODING 1086
SWIDTH 840 0
DWIDTH 14 0
BBX 11 8 2 0
BITMAP
7F80
7F80
E0E0
E0E0
E0E0
E0E0
7F80
7F80
ENDCHAR
STARTCHAR 043F
ENCODING 1087
SWIDTH 840 0
DWIDTH 14 0
BBX 11 8 2 0
BITMAP
FFE0
FFE0
E0E0
E0E0
E0E0
E0E0
E0E0
E0E0
ENDCHAR
STARTCHAR 0440
ENCODING 1088
SWIDTH 840 0
DWIDTH 14 0
BBX 11 13 2 -5
BITMAP
FF80
FF80
E0E0
E0E0
E0E0
E0E0
FF80
FF80
E000
E000
E000
E000
E000
ENDCHAR
STARTCHAR 0441
ENCODING 1089
SWIDTH 840 0
DWIDTH 14 0
BBX 11 8 2 0
BITMAP
7F80
FFE0
E0E0
E000
E000
E0E0
7F80
7F80
ENDCHAR
STARTCHAR 0442
ENCODING 1090
SWIDTH 720 0
DWIDTH 12 0
BBX 9 8 2 0
BITMAP
FF80
FF80
1C00
1C00
1C00
1C00
1C00
1C00
ENDCHAR
STARTCHAR 0443
ENCODING 1091
SWIDTH 840 0
DWIDTH 14 0
BBX 11 13 2 -5
BITMAP
E0E0
E0E0
E0E0
E0E0
E0E0
E0E0
7FE0
7FE0
00E0
00E0
00E0
7F80
7F80
ENDCHAR
STARTCHAR 0444
ENCODING 1092
SWIDTH 1020 0
DWIDTH 17 0
BBX 14 18 2 -5
BITMAP
0700
0700
0700
0700
0700
7FF0
7FF0
E71C
E71C
E71C
E71C
7FF0
7FF0
0700
0700
0700
0700
0700
ENDCHAR
STARTCHAR 0445
ENCODING 1093
SWIDTH 840 0
DWIDTH 14 0
BBX 11 8 2 0
BITMAP
E0E0
E0E0
3BC0
3FC0
1F00
3FC0
E0E0
E0E0
ENDCHAR
STARTCHAR 0446
ENCODING 1094
SWIDTH 900 0
DWIDTH 15 0
BBX 12 10 2 -2
BITMAP
E0E0
E0E0
E0E0
E0E0
E0E0
E0E0
FFF0
FFF0
0070
0070
ENDCHAR
STARTCHAR 0447
ENCODING 1095
SWIDTH 840 0
DWIDTH 14 0
BBX 11 8 2 0
BITMAP
E0E0
E0E0
E0E0
E0E0
3FE0
3FE0
00E0
00E0
ENDCHAR
STARTCHAR 0448
ENCODING 1096
SWIDTH 960 0
DWIDTH 16 0
BBX 13 8 2 0
BITMAP
E738
E738
E738
E738
E738
E738
FFF8
FFF8
ENDCHAR
STARTCHAR 0449
ENCODING 1097
SWIDTH 1020 0
DWIDTH 17 0
BBX 14 10 2 -2
BITMAP
E770
E770
E770
E770
E770
E770
FFFC
FFFC
001C
001C
ENDCHAR
STARTCHAR 044A
ENCODING 1098
SWIDTH 960 0
DWIDTH 16 0
BBX 13 8 2 0
BITMAP
F800
F800
3800
3FE0
3FE0
3838
3FE0
3FE0
ENDCHAR
STARTCHAR 044B
ENCODING 1099
SWIDTH 1020 0
DWIDTH 17 0
BBX 14 8 2 0
BITMAP
E01C
E01C
E01C
FF1C
FF1C
E39C
FF1C
FF1C
ENDCHAR
STARTCHAR 044C
ENCODING 1100
SWIDTH 840 0
DWIDTH 14 0
BBX 11 8 2 0
BITMAP
E000
E000
E000
FF80
FF80
E0E0
FF80
FF80
ENDCHAR
STARTCHAR 044D
ENCODING 1101
SWIDTH 840 0
DWIDTH 14 0
BBX 11 8 2 0
BITMAP
7F80
FFE0
E0E0
07E0
07E0
E0E0
7F80
7F80
ENDCHAR
STARTCHAR 044E
ENCODING 1102
SWIDTH 1080 0
DWIDTH 18 0
BBX 15 8 2 0
BITMAP
E3FC
E3FC
E70E
FF0E
FF0E
E70E
E3FC
E3FC
ENDCHAR
STARTCHAR 044F
ENCODING 1103
SWIDTH 840 0
DWIDTH 14 0
BBX 11 8 2 0
BITMAP
3FE0
FFE0
E0E0
3FE0
3FE0
E0E0
E0E0
E0E0
ENDCHAR
STARTCHAR 0450
ENCODING 1104
SWIDTH 840 0
DWIDTH 14 0
BBX 11 13 2 0
BITMAP
3800
3800
0E00
0E00
0000
7F80
7F80
E0E0
FFE0
FFE0
E000
7F80
7F80
ENDCHAR
STARTCHAR 0451
ENCODING 1105
SWIDTH 840 0
DWIDTH 14 0
BBX 11 13 2 0
BITMAP
3B80
3B80
3B80
0000
0000
3F80
3F80
E0E0
FFE0
FFE0
E000
3F80
3F80
ENDCHAR
STARTCHAR 0453
ENCODING 1107
SWIDTH 600 0
DWIDTH 10 0
BBX 8 13 2 0
BITMAP
0E
0E
38
38
00
FF
FF
E0
E0
E0
E0
E0
E0
ENDCHAR
STARTCHAR 0454
ENCODING 1108
SWIDTH 840 0
DWIDTH 14 0
BBX 11 8 2 0
BITMAP
7F80
FFE0
E0E0
FC00
FC00
E0E0
7F80
7F80
ENDCHAR
STARTCHAR 0456
ENCODING 1110
SWIDTH 360 0
DWIDTH 6 0
BBX 3 13 2 0
BITMAP
E0
E0
E0
00
00
E0
E0
E0
E0
E0
E0
E0
E0
ENDCHAR
STARTCHAR 0457
ENCODING 1111
SWIDTH 480 0
DWIDTH 8 0
BBX 8 13 -1 0
BITMAP
E7
E7
E7
00
00
38
38
38
38
38
38
38
38
ENDCHAR
STARTCHAR 0459
ENCODING 1113
SWIDTH 1200 0
DWIDTH 20 0
BBX 17 8 2 0
BITMAP
3FE000
3FE000
38E000
38FE00
38FE00
38E380
E0FE00
E0FE00
ENDCHAR
STARTCHAR 045A
ENCODING 1114
SWIDTH 1200 0
DWIDTH 20 0
BBX 17 8 2 0
BITMAP
E0E000
E0E000
E0E000
FFFE00
FFFE00
E0E380
E0FE00
E0FE00
ENDCHAR
STARTCHAR 045B
ENCODING 1115
SWIDTH 780 0
DWIDTH 13 0
BBX 12 13 0 0
BITMAP
3800
3800
FF00
FF00
3800
3BE0
3BE0
3F70
3F70
3870
3870
3870
3870
ENDCHAR
STARTCHAR 045C
ENCODING 1116
SWIDTH 720 0
DWIDTH 12 0
BBX 9 13 2 0
BITMAP
0700
0700
1C00
1C00
0000
E380
E380
E700
FC00
FC00
E700
E380
E380
ENDCHAR
STARTCHAR 045D
ENCODING 1117
SWIDTH 780 0
DWIDTH 13 0
BBX 10 13 2 0
BITMAP
3800
3800
1C00
1C00
0000
E0C0
E3C0
E3C0
EFC0
FCC0
FCC0
F0C0
E0C0
ENDCHAR
STARTCHAR 045E
ENCODING 1118
SWIDTH 840 0
DWIDTH 14 0
BBX 11 18 2 -5
BITMAP
71C0
71C0
3F00
3F00
0000
E0E0
E0E0
E0E0
E0E0
E0E0
E0E0
7FE0
7FE0
00E0
00E0
00E0
7F80
7F80
ENDCHAR
STARTCHAR 0490
ENCODING 1168
SWIDTH 720 0
DWIDTH 12 0
BBX 9 15 2 0
BITMAP
0380
0380
FF80
FF80
E000
E000
E000
E000
E000
E000
E000
E000
E000
E000
E000
ENDCHAR
STARTCHAR 0491
ENCODING 1169
SWIDTH 660 0
DWIDTH 11 0
BBX 8 11 2 0
BITMAP
07
07
07
FF
FF
E0
E0
E0
E0
E0
E0
ENDCHAR
STARTCHAR 0492
ENCODING 1170
SWIDTH 660 0
DWIDTH 11 0
BBX 11 13 0 0
BITMAP
3FE0
3FE0
3800
3800
3800
FF00
FF00
3800
3800
3800
3800
3800
3800
ENDCHAR
STARTCHAR 0493
ENCODING 1171
SWIDTH 600 0
DWIDTH 10 0
BBX 9 8 0 0
BITMAP
3F80
3F80
3800
FF00
FF00
3800
3800
3800
ENDCHAR
STARTCHAR 0496
ENCODING 1174
SWIDTH 1020 0
DWIDTH 17 0
BBX 14 15 2 -2
BITMAP
E770
E770
E770
E770
E770
E770
3FE0
E770
E770
E770
E770
E77C
E77C
001C
001C
ENDCHAR
STARTCHAR 0497
ENCODING 1175
SWIDTH 1020 0
DWIDTH 17 0
BBX 14 10 2 -2
BITMAP
E770
E770
E770
3FE0
3FE0
E770
E77C
E77C
001C
001C
ENDCHAR
STARTCHAR 049A
ENCODING 1178
SWIDTH 900 0
DWIDTH 15 0
BBX 12 15 2 -2
BITMAP
E0E0
E0E0
E380
E700
E700
FC00
FC00
E700
E380
E380
E0E0
E0F0
E0F0
0070
0070
ENDCHAR
STARTCHAR 049B
ENCODING 1179
SWIDTH 840 0
DWIDTH 14 0
BBX 11 10 2 -2
BITMAP
E1C0
E7C0
E700
FC00
FC00
E700
E3E0
E3E0
00E0
00E0
ENDCHAR
STARTCHAR 049C
ENCODING 1180
SWIDTH 900 0
DWIDTH 15 0
BBX 12 13 2 0
BITMAP
E070
E070
ECE0
EF80
EF80
FF00
FF00
EF80
ECE0
ECE0
E070
E070
E070
ENDCHAR
STARTCHAR 049D
ENCODING 1181
SWIDTH 840 0
DWIDTH 14 0
BBX 11 8 2 0
BITMAP
E0E0
E0E0
EF80
FF00
FF00
EF80
E0E0
E0E0
ENDCHAR
STARTCHAR 049E
ENCODING 1182
SWIDTH 780 0
DWIDTH 13 0
BBX 12 13 0 0
BITMAP
3870
3870
FCE0
3B80
3B80
3F00
3F00
3B80
38E0
38E0
3870
3870
3870
ENDCHAR
STARTCHAR 049F
ENCODING 1183
SWIDTH 720 0
DWIDTH 12 0
BBX 11 13 0 0
BITMAP
3800
3800
FC00
FC00
3800
38E0
3BE0
3B80
3F00
3F00
3B80
38E0
38E0
ENDCHAR
STARTCHAR 04A0
ENCODING 1184
SWIDTH 960 0
DWIDTH 16 0
BBX 13 13 2 0
BITMAP
F838
F838
38E0
39C0
39C0
3F00
3F00
39C0
38E0
38E0
3838
3838
3838
ENDCHAR
STARTCHAR 04A1
ENCODING 1185
SWIDTH 900 0
DWIDTH 15 0
BBX 12 8 2 0
BITMAP
F8F0
F8F0
39C0
3F00
3F00
39C0
38F0
38F0
ENDCHAR
STARTCHAR 04A2
ENCODING 1186
SWIDTH 900 0
DWIDTH 15 0
BBX 12 15 2 -2
BITMAP
E0E0
E0E0
E0E0
E0E0
E0E0
FFE0
FFE0
E0E0
E0E0
E0E0
E0E0
E0F0
E0F0
0070
0070
ENDCHAR
STARTCHAR 04A3
ENCODING 1187
SWIDTH 900 0
DWIDTH 15 0
BBX 12 10 2 -2
BITMAP
E0E0
E0E0
E0E0
FFE0
FFE0
E0E0
E0F0
E0F0
0070
0070
ENDCHAR
STARTCHAR 04A4
ENCODING 1188
SWIDTH 960 0
DWIDTH 16 0
BBX 13 13 2 0
BITMAP
E0F8
E0F8
E0E0
E0E0
E0E0
FFE0
FFE0
E0E0
E0E0
E0E0
E0E0
E0E0
E0E0
ENDCHAR
STARTCHAR 04A5
ENCODING 1189
SWIDTH 960 0
DWIDTH 16 0
BBX 14 8 2 0
BITMAP
E0FC
E0FC
E0E0
FFE0
FFE0
E0E0
E0E0
E0E0
ENDCHAR
STARTCHAR 04AC
ENCODING 1196
SWIDTH 840 0
DWIDTH 14 0
BBX 11 15 2 -2
BITMAP
FFE0
FFE0
0E00
0E00
0E00
0E00
0E00
0E00
0E00
0E00
0E00
0F80
0F80
0380
0380
ENDCHAR
STARTCHAR 04AD
ENCODING 1197
SWIDTH 720 0
DWIDTH 12 0
BBX 9 10 2 -2
BITMAP
FF80
FF80
1C00
1C00
1C00
1C00
1F00
1F00
0700
0700
ENDCHAR
STARTCHAR 2018
ENCODING 8216
SWIDTH 480 0
DWIDTH 8 0
BBX 5 5 2 8
BITMAP
38
38
E0
E0
E0
ENDCHAR
STARTCHAR 2019
ENCODING 8217
SWIDTH 360 0
DWIDTH 6 0
BBX 5 5 0 8
BITMAP
38
38
38
E0
E0
ENDCHAR
STARTCHAR 201C
ENCODING 8220
SWIDTH 720 0
DWIDTH 12 0
BBX 9 5 2 8
BITMAP
3B80
3B80
E700
E700
E700
ENDCHAR
STARTCHAR 201D
ENCODING 8221
SWIDTH 600 0
DWIDTH 10 0
BBX 9 5 0 8
BITMAP
3B80
3B80
3B80
E700
E700
ENDCHAR
STARTCHAR 20AC
ENCODING 8364
SWIDTH 900 0
DWIDTH 15 0
BBX 13 13 1 0
BITMAP
07E0
07E0
0E38
0E38
3800
FF80
FF00
FF80
FF00
3800
1E38
0FE0
0FE0
ENDCHAR
STARTCHAR 2122
ENCODING 8482
SWIDTH 960 0
DWIDTH 16 0
BBX 14 6 1 6
BITMAP
FF0C
13DC
13DC
136C
130C
130C
ENDCHAR
STARTCHAR FB00
ENCODING 64256
SWIDTH 1020 0
DWIDTH 17 0
BBX 14 13 2 0
BITMAP
1F7C
1F7C
38E0
38E0
38E0
FFFC
FFFC
38E0
38E0
38E0
38E0
38E0
38E0
ENDCHAR
STARTCHAR FB01
ENCODING 64257
SWIDTH 780 0
DWIDTH 13 0
BBX 10 13 2 0
BITMAP
3E00
3E00
7000
7000
7000
FFC0
FFC0
71C0
71C0
71C0
71C0
71C0
71C0
ENDCHAR
STARTCHAR FB02
ENCODING 64258
SWIDTH 900 0
DWIDTH 15 0
BBX 12 13 2 0
BITMAP
1FC0
1FC0
71C0
71C0
71C0
FFC0
FFC0
71C0
71C0
71C0
71C0
7070
7070
ENDCHAR
STARTCHAR FB03
ENCODING 64259
SWIDTH 1140 0
DWIDTH 19 0
BBX 16 13 2 0
BITMAP
3EF8
3EF8
71C0
71C0
71C0
FFFF
FFFF
71C7
71C7
71C7
71C7
71C7
71C7
ENDCHAR
STARTCHAR FB04
ENCODING 64260
SWIDTH 1260 0
DWIDTH 21 0
BBX 18 13 2 0
BITMAP
3E7F00
3E7F00
71C700
71C700
71C700
FFFF00
FFFF00
71C700
71C700
71C700
71C700
71C1C0
71C1C0
ENDCHAR
ENDFONT
STARTFONT 2.1
COMMENT
COMMENT Converted from OpenType font "Retro Gaming.ttf" by "otf2bdf 3.0".
COMMENT
FONT -FreeType-Retro Gaming-Medium-R-Normal--6-40-100-100-P-41-ISO10646-1
SIZE 4 100 100
FONTBOUNDINGBOX 7 9 0 -2
STARTPROPERTIES 19
FOUNDRY "FreeType"
FAMILY_NAME "Retro Gaming"
WEIGHT_NAME "Medium"
SLANT "R"
SETWIDTH_NAME "Normal"
ADD_STYLE_NAME ""
PIXEL_SIZE 6
POINT_SIZE 40
RESOLUTION_X 100
RESOLUTION_Y 100
SPACING "P"
AVERAGE_WIDTH 41
CHARSET_REGISTRY "ISO10646"
CHARSET_ENCODING "1"
FONT_ASCENT 6
FONT_DESCENT 1
COPYRIGHT "Copyright © 2019 by Vasily Draigo aka Daymarius. All rights reserved."
_OTF_FONTFILE "Retro Gaming.ttf"
_OTF_PSNAME "RetroGaming"
ENDPROPERTIES
CHARS 316
STARTCHAR 0020
ENCODING 32
SWIDTH 360 0
DWIDTH 2 0
BBX 0 0 0 0
BITMAP
ENDCHAR
STARTCHAR 0021
ENCODING 33
SWIDTH 360 0
DWIDTH 2 0
BBX 1 5 1 0
BITMAP
80
80
80
00
80
ENDCHAR
STARTCHAR 0022
ENCODING 34
SWIDTH 720 0
DWIDTH 4 0
BBX 3 2 1 3
BITMAP
A0
A0
ENDCHAR
STARTCHAR 0023
ENCODING 35
SWIDTH 1080 0
DWIDTH 6 0
BBX 5 5 1 0
BITMAP
50
F8
50
F8
50
ENDCHAR
STARTCHAR 0024
ENCODING 36
SWIDTH 900 0
DWIDTH 5 0
BBX 4 7 1 -1
BITMAP
40
E0
D0
E0
50
F0
40
ENDCHAR
STARTCHAR 0025
ENCODING 37
SWIDTH 900 0
DWIDTH 5 0
BBX 4 5 1 0
BITMAP
D0
A0
40
D0
A0
ENDCHAR
STARTCHAR 0026
ENCODING 38
SWIDTH 900 0
DWIDTH 5 0
BBX 4 5 1 0
BITMAP
E0
A0
C0
B0
C0
ENDCHAR
STARTCHAR 0027
ENCODING 39
SWIDTH 360 0
DWIDTH 2 0
BBX 1 2 1 3
BITMAP
80
80
ENDCHAR
STARTCHAR 0028
ENCODING 40
SWIDTH 540 0
DWIDTH 3 0
BBX 2 5 1 0
BITMAP
40
80
80
80
40
ENDCHAR
STARTCHAR 0029
ENCODING 41
SWIDTH 540 0
DWIDTH 3 0
BBX 2 5 1 0
BITMAP
80
80
40
40
80
ENDCHAR
STARTCHAR 002A
ENCODING 42
SWIDTH 900 0
DWIDTH 5 0
BBX 4 3 1 1
BITMAP
E0
F0
A0
ENDCHAR
STARTCHAR 002B
ENCODING 43
SWIDTH 720 0
DWIDTH 4 0
BBX 3 3 1 1
BITMAP
40
E0
40
ENDCHAR
STARTCHAR 002C
ENCODING 44
SWIDTH 360 0
DWIDTH 2 0
BBX 2 2 0 -1
BITMAP
40
80
ENDCHAR
STARTCHAR 002D
ENCODING 45
SWIDTH 540 0
DWIDTH 3 0
BBX 2 1 1 2
BITMAP
C0
ENDCHAR
STARTCHAR 002E
ENCODING 46
SWIDTH 360 0
DWIDTH 2 0
BBX 1 1 1 0
BITMAP
80
ENDCHAR
STARTCHAR 002F
ENCODING 47
SWIDTH 900 0
DWIDTH 5 0
BBX 4 5 1 0
BITMAP
10
20
40
C0
80
ENDCHAR
STARTCHAR 0030
ENCODING 48
SWIDTH 900 0
DWIDTH 5 0
BBX 4 5 1 0
BITMAP
E0
B0
D0
D0
E0
ENDCHAR
STARTCHAR 0031
ENCODING 49
SWIDTH 540 0
DWIDTH 3 0
BBX 2 5 0 0
BITMAP
40
C0
40
40
C0
ENDCHAR
STARTCHAR 0032
ENCODING 50
SWIDTH 900 0
DWIDTH 5 0
BBX 4 5 1 0
BITMAP
E0
90
E0
80
F0
ENDCHAR
STARTCHAR 0033
ENCODING 51
SWIDTH 720 0
DWIDTH 4 0
BBX 4 5 0 0
BITMAP
F0
20
60
10
F0
ENDCHAR
STARTCHAR 0034
ENCODING 52
SWIDTH 720 0
DWIDTH 4 0
BBX 4 5 0 0
BITMAP
30
50
F0
10
10
ENDCHAR
STARTCHAR 0035
ENCODING 53
SWIDTH 900 0
DWIDTH 5 0
BBX 4 5 1 0
BITMAP
E0
80
E0
10
F0
ENDCHAR
STARTCHAR 0036
ENCODING 54
SWIDTH 900 0
DWIDTH 5 0
BBX 4 5 1 0
BITMAP
E0
90
E0
90
E0
ENDCHAR
STARTCHAR 0037
ENCODING 55
SWIDTH 900 0
DWIDTH 5 0
BBX 3 5 1 0
BITMAP
E0
20
40
40
40
ENDCHAR
STARTCHAR 0038
ENCODING 56
SWIDTH 900 0
DWIDTH 5 0
BBX 4 5 1 0
BITMAP
E0
90
E0
90
E0
ENDCHAR
STARTCHAR 0039
ENCODING 57
SWIDTH 900 0
DWIDTH 5 0
BBX 4 5 1 0
BITMAP
E0
90
F0
10
F0
ENDCHAR
STARTCHAR 003A
ENCODING 58
SWIDTH 360 0
DWIDTH 2 0
BBX 1 4 1 0
BITMAP
80
00
00
80
ENDCHAR
STARTCHAR 003B
ENCODING 59
SWIDTH 360 0
DWIDTH 2 0
BBX 2 5 0 -1
BITMAP
40
00
00
40
80
ENDCHAR
STARTCHAR 003C
ENCODING 60
SWIDTH 540 0
DWIDTH 3 0
BBX 2 4 1 0
BITMAP
40
00
80
40
ENDCHAR
STARTCHAR 003D
ENCODING 61
SWIDTH 540 0
DWIDTH 3 0
BBX 2 2 1 1
BITMAP
C0
C0
ENDCHAR
STARTCHAR 003E
ENCODING 62
SWIDTH 540 0
DWIDTH 3 0
BBX 2 3 1 0
BITMAP
80
40
40
ENDCHAR
STARTCHAR 003F
ENCODING 63
SWIDTH 900 0
DWIDTH 5 0
BBX 4 5 1 0
BITMAP
E0
90
60
00
40
ENDCHAR
STARTCHAR 0040
ENCODING 64
SWIDTH 900 0
DWIDTH 5 0
BBX 4 5 1 0
BITMAP
60
F0
F0
F0
60
ENDCHAR
STARTCHAR 0041
ENCODING 65
SWIDTH 900 0
DWIDTH 5 0
BBX 4 5 1 0
BITMAP
60
90
F0
90
90
ENDCHAR
STARTCHAR 0042
ENCODING 66
SWIDTH 900 0
DWIDTH 5 0
BBX 4 5 1 0
BITMAP
E0
90
E0
90
E0
ENDCHAR
STARTCHAR 0043
ENCODING 67
SWIDTH 900 0
DWIDTH 5 0
BBX 3 5 1 0
BITMAP
60
A0
80
80
E0
ENDCHAR
STARTCHAR 0044
ENCODING 68
SWIDTH 900 0
DWIDTH 5 0
BBX 4 5 1 0
BITMAP
E0
A0
90
90
E0
ENDCHAR
STARTCHAR 0045
ENCODING 69
SWIDTH 900 0
DWIDTH 5 0
BBX 3 5 1 0
BITMAP
E0
80
C0
80
E0
ENDCHAR
STARTCHAR 0046
ENCODING 70
SWIDTH 900 0
DWIDTH 5 0
BBX 3 5 1 0
BITMAP
E0
80
C0
80
80
ENDCHAR
STARTCHAR 0047
ENCODING 71
SWIDTH 900 0
DWIDTH 5 0
BBX 4 5 1 0
BITMAP
60
D0
B0
90
70
ENDCHAR
STARTCHAR 0048
ENCODING 72
SWIDTH 900 0
DWIDTH 5 0
BBX 4 5 1 0
BITMAP
90
90
F0
90
90
ENDCHAR
STARTCHAR 0049
ENCODING 73
SWIDTH 720 0
DWIDTH 4 0
BBX 3 5 1 0
BITMAP
E0
40
40
40
E0
ENDCHAR
STARTCHAR 004A
ENCODING 74
SWIDTH 900 0
DWIDTH 5 0
BBX 4 5 1 0
BITMAP
70
10
10
90
E0
ENDCHAR
STARTCHAR 004B
ENCODING 75
SWIDTH 900 0
DWIDTH 5 0
BBX 4 5 1 0
BITMAP
90
A0
C0
A0
90
ENDCHAR
STARTCHAR 004C
ENCODING 76
SWIDTH 720 0
DWIDTH 4 0
BBX 3 5 1 0
BITMAP
80
80
80
80
E0
ENDCHAR
STARTCHAR 004D
ENCODING 77
SWIDTH 900 0
DWIDTH 5 0
BBX 4 5 1 0
BITMAP
90
F0
E0
A0
A0
ENDCHAR
STARTCHAR 004E
ENCODING 78
SWIDTH 900 0
DWIDTH 5 0
BBX 4 5 1 0
BITMAP
A0
E0
E0
B0
90
ENDCHAR
STARTCHAR 004F
ENCODING 79
SWIDTH 900 0
DWIDTH 5 0
BBX 4 5 1 0
BITMAP
E0
90
90
90
E0
ENDCHAR
STARTCHAR 0050
ENCODING 80
SWIDTH 900 0
DWIDTH 5 0
BBX 4 5 1 0
BITMAP
E0
90
E0
80
80
ENDCHAR
STARTCHAR 0051
ENCODING 81
SWIDTH 900 0
DWIDTH 5 0
BBX 4 5 1 0
BITMAP
E0
90
90
B0
F0
ENDCHAR
STARTCHAR 0052
ENCODING 82
SWIDTH 900 0
DWIDTH 5 0
BBX 4 5 1 0
BITMAP
E0
90
E0
90
90
ENDCHAR
STARTCHAR 0053
ENCODING 83
SWIDTH 900 0
DWIDTH 5 0
BBX 4 5 1 0
BITMAP
E0
90
E0
10
F0
ENDCHAR
STARTCHAR 0054
ENCODING 84
SWIDTH 720 0
DWIDTH 4 0
BBX 3 5 1 0
BITMAP
E0
40
40
40
40
ENDCHAR
STARTCHAR 0055
ENCODING 85
SWIDTH 900 0
DWIDTH 5 0
BBX 4 5 1 0
BITMAP
90
90
90
90
E0
ENDCHAR
STARTCHAR 0056
ENCODING 86
SWIDTH 900 0
DWIDTH 5 0
BBX 4 5 1 0
BITMAP
90
90
90
E0
40
ENDCHAR
STARTCHAR 0057
ENCODING 87
SWIDTH 900 0
DWIDTH 5 0
BBX 4 5 1 0
BITMAP
B0
B0
B0
F0
A0
ENDCHAR
STARTCHAR 0058
ENCODING 88
SWIDTH 900 0
DWIDTH 5 0
BBX 4 5 1 0
BITMAP
90
E0
60
90
90
ENDCHAR
STARTCHAR 0059
ENCODING 89
SWIDTH 720 0
DWIDTH 4 0
BBX 3 5 1 0
BITMAP
A0
A0
C0
40
40
ENDCHAR
STARTCHAR 005A
ENCODING 90
SWIDTH 900 0
DWIDTH 5 0
BBX 4 5 1 0
BITMAP
F0
20
40
80
F0
ENDCHAR
STARTCHAR 005B
ENCODING 91
SWIDTH 540 0
DWIDTH 3 0
BBX 2 5 1 0
BITMAP
C0
80
80
80
C0
ENDCHAR
STARTCHAR 005C
ENCODING 92
SWIDTH 900 0
DWIDTH 5 0
BBX 4 5 1 0
BITMAP
80
C0
40
20
10
ENDCHAR
STARTCHAR 005D
ENCODING 93
SWIDTH 540 0
DWIDTH 3 0
BBX 2 5 1 0
BITMAP
C0
40
40
40
C0
ENDCHAR
STARTCHAR 005E
ENCODING 94
SWIDTH 720 0
DWIDTH 4 0
BBX 2 2 2 3
BITMAP
80
40
ENDCHAR
STARTCHAR 005F
ENCODING 95
SWIDTH 540 0
DWIDTH 3 0
BBX 2 1 1 0
BITMAP
C0
ENDCHAR
STARTCHAR 0060
ENCODING 96
SWIDTH 540 0
DWIDTH 3 0
BBX 1 1 2 4
BITMAP
80
ENDCHAR
STARTCHAR 0061
ENCODING 97
SWIDTH 720 0
DWIDTH 4 0
BBX 4 3 0 0
BITMAP
60
70
F0
ENDCHAR
STARTCHAR 0062
ENCODING 98
SWIDTH 900 0
DWIDTH 5 0
BBX 4 5 1 0
BITMAP
80
80
E0
90
E0
ENDCHAR
STARTCHAR 0063
ENCODING 99
SWIDTH 900 0
DWIDTH 5 0
BBX 3 3 1 0
BITMAP
E0
80
E0
ENDCHAR
STARTCHAR 0064
ENCODING 100
SWIDTH 900 0
DWIDTH 5 0
BBX 4 5 1 0
BITMAP
10
10
F0
90
F0
ENDCHAR
STARTCHAR 0065
ENCODING 101
SWIDTH 900 0
DWIDTH 5 0
BBX 4 3 1 0
BITMAP
E0
F0
E0
ENDCHAR
STARTCHAR 0066
ENCODING 102
SWIDTH 540 0
DWIDTH 3 0
BBX 3 5 0 0
BITMAP
60
40
E0
40
40
ENDCHAR
STARTCHAR 0067
ENCODING 103
SWIDTH 900 0
DWIDTH 5 0
BBX 4 5 1 -2
BITMAP
F0
90
F0
10
E0
ENDCHAR
STARTCHAR 0068
ENCODING 104
SWIDTH 900 0
DWIDTH 5 0
BBX 4 5 1 0
BITMAP
80
80
E0
90
90
ENDCHAR
STARTCHAR 0069
ENCODING 105
SWIDTH 360 0
DWIDTH 2 0
BBX 1 5 1 0
BITMAP
80
00
80
80
80
ENDCHAR
STARTCHAR 006A
ENCODING 106
SWIDTH 540 0
DWIDTH 3 0
BBX 3 6 0 -1
BITMAP
20
00
20
20
A0
40
ENDCHAR
STARTCHAR 006B
ENCODING 107
SWIDTH 720 0
DWIDTH 4 0
BBX 3 5 1 0
BITMAP
80
80
A0
C0
A0
ENDCHAR
STARTCHAR 006C
ENCODING 108
SWIDTH 540 0
DWIDTH 3 0
BBX 1 5 1 0
BITMAP
80
80
80
80
80
ENDCHAR
STARTCHAR 006D
ENCODING 109
SWIDTH 900 0
DWIDTH 5 0
BBX 4 3 1 0
BITMAP
E0
D0
D0
ENDCHAR
STARTCHAR 006E
ENCODING 110
SWIDTH 900 0
DWIDTH 5 0
BBX 4 3 1 0
BITMAP
E0
90
90
ENDCHAR
STARTCHAR 006F
ENCODING 111
SWIDTH 900 0
DWIDTH 5 0
BBX 4 3 1 0
BITMAP
E0
90
E0
ENDCHAR
STARTCHAR 0070
ENCODING 112
SWIDTH 900 0
DWIDTH 5 0
BBX 4 5 1 -2
BITMAP
E0
90
E0
80
80
ENDCHAR
STARTCHAR 0071
ENCODING 113
SWIDTH 900 0
DWIDTH 5 0
BBX 4 5 1 -2
BITMAP
F0
90
F0
10
10
ENDCHAR
STARTCHAR 0072
ENCODING 114
SWIDTH 720 0
DWIDTH 4 0
BBX 3 3 1 0
BITMAP
E0
80
80
ENDCHAR
STARTCHAR 0073
ENCODING 115
SWIDTH 720 0
DWIDTH 4 0
BBX 3 3 1 0
BITMAP
E0
E0
E0
ENDCHAR
STARTCHAR 0074
ENCODING 116
SWIDTH 540 0
DWIDTH 3 0
BBX 3 5 0 0
BITMAP
40
40
E0
40
60
ENDCHAR
STARTCHAR 0075
ENCODING 117
SWIDTH 900 0
DWIDTH 5 0
BBX 4 3 1 0
BITMAP
90
90
E0
ENDCHAR
STARTCHAR 0076
ENCODING 118
SWIDTH 900 0
DWIDTH 5 0
BBX 4 3 1 0
BITMAP
90
90
60
ENDCHAR
STARTCHAR 0077
ENCODING 119
SWIDTH 900 0
DWIDTH 5 0
BBX 4 3 1 0
BITMAP
D0
D0
A0
ENDCHAR
STARTCHAR 0078
ENCODING 120
SWIDTH 720 0
DWIDTH 4 0
BBX 2 3 2 0
BITMAP
40
80
40
ENDCHAR
STARTCHAR 0079
ENCODING 121
SWIDTH 900 0
DWIDTH 5 0
BBX 4 5 1 -2
BITMAP
90
90
F0
10
E0
ENDCHAR
STARTCHAR 007A
ENCODING 122
SWIDTH 720 0
DWIDTH 4 0
BBX 3 3 1 0
BITMAP
E0
40
E0
ENDCHAR
STARTCHAR 007B
ENCODING 123
SWIDTH 540 0
DWIDTH 3 0
BBX 2 5 0 0
BITMAP
40
40
80
40
40
ENDCHAR
STARTCHAR 007C
ENCODING 124
SWIDTH 360 0
DWIDTH 2 0
BBX 1 6 1 -1
BITMAP
80
80
80
80
80
80
ENDCHAR
STARTCHAR 007D
ENCODING 125
SWIDTH 540 0
DWIDTH 3 0
BBX 2 5 0 0
BITMAP
80
40
40
40
80
ENDCHAR
STARTCHAR 007E
ENCODING 126
SWIDTH 720 0
DWIDTH 4 0
BBX 3 2 1 2
BITMAP
E0
40
ENDCHAR
STARTCHAR 00A1
ENCODING 161
SWIDTH 360 0
DWIDTH 2 0
BBX 1 5 1 0
BITMAP
80
00
80
80
80
ENDCHAR
STARTCHAR 00A2
ENCODING 162
SWIDTH 900 0
DWIDTH 5 0
BBX 3 4 1 0
BITMAP
40
E0
C0
E0
ENDCHAR
STARTCHAR 00A3
ENCODING 163
SWIDTH 720 0
DWIDTH 4 0
BBX 4 5 0 0
BITMAP
60
50
E0
40
F0
ENDCHAR
STARTCHAR 00A4
ENCODING 164
SWIDTH 900 0
DWIDTH 5 0
BBX 4 3 0 1
BITMAP
F0
50
A0
ENDCHAR
STARTCHAR 00A5
ENCODING 165
SWIDTH 900 0
DWIDTH 5 0
BBX 4 5 1 0
BITMAP
90
90
60
F0
F0
ENDCHAR
STARTCHAR 00A6
ENCODING 166
SWIDTH 360 0
DWIDTH 2 0
BBX 1 8 1 -2
BITMAP
80
80
80
00
00
80
80
80
ENDCHAR
STARTCHAR 00A7
ENCODING 167
SWIDTH 900 0
DWIDTH 5 0
BBX 4 5 1 0
BITMAP
E0
F0
A0
60
F0
ENDCHAR
STARTCHAR 00A8
ENCODING 168
SWIDTH 720 0
DWIDTH 4 0
BBX 3 1 1 4
BITMAP
A0
ENDCHAR
STARTCHAR 00A9
ENCODING 169
SWIDTH 1080 0
DWIDTH 6 0
BBX 5 5 1 0
BITMAP
F8
F8
C8
F8
F0
ENDCHAR
STARTCHAR 00AA
ENCODING 170
SWIDTH 540 0
DWIDTH 3 0
BBX 2 3 1 1
BITMAP
80
C0
C0
ENDCHAR
STARTCHAR 00AB
ENCODING 171
SWIDTH 900 0
DWIDTH 5 0
BBX 4 4 1 0
BITMAP
50
20
A0
50
ENDCHAR
STARTCHAR 00AE
ENCODING 174
SWIDTH 720 0
DWIDTH 4 0
BBX 3 4 1 1
BITMAP
40
E0
E0
40
ENDCHAR
STARTCHAR 00B1
ENCODING 177
SWIDTH 720 0
DWIDTH 4 0
BBX 3 4 1 0
BITMAP
40
E0
40
E0
ENDCHAR
STARTCHAR 00B5
ENCODING 181
SWIDTH 900 0
DWIDTH 5 0
BBX 4 5 1 -2
BITMAP
90
90
F0
80
80
ENDCHAR
STARTCHAR 00B6
ENCODING 182
SWIDTH 900 0
DWIDTH 5 0
BBX 4 5 1 0
BITMAP
F0
F0
F0
30
30
ENDCHAR
STARTCHAR 00BB
ENCODING 187
SWIDTH 900 0
DWIDTH 5 0
BBX 4 4 1 0
BITMAP
A0
50
50
20
ENDCHAR
STARTCHAR 00BF
ENCODING 191
SWIDTH 900 0
DWIDTH 5 0
BBX 4 5 1 0
BITMAP
20
00
E0
80
F0
ENDCHAR
STARTCHAR 00C0
ENCODING 192
SWIDTH 900 0
DWIDTH 5 0
BBX 4 7 1 0
BITMAP
40
60
60
90
F0
90
90
ENDCHAR
STARTCHAR 00C1
ENCODING 193
SWIDTH 900 0
DWIDTH 5 0
BBX 4 7 1 0
BITMAP
20
60
60
90
F0
90
90
ENDCHAR
STARTCHAR 00C2
ENCODING 194
SWIDTH 900 0
DWIDTH 5 0
BBX 4 7 1 0
BITMAP
60
E0
60
90
F0
90
90
ENDCHAR
STARTCHAR 00C3
ENCODING 195
SWIDTH 900 0
DWIDTH 5 0
BBX 4 7 1 0
BITMAP
40
20
60
90
F0
90
90
ENDCHAR
STARTCHAR 00C4
ENCODING 196
SWIDTH 900 0
DWIDTH 5 0
BBX 4 7 1 0
BITMAP
60
00
60
90
F0
90
90
ENDCHAR
STARTCHAR 00C5
ENCODING 197
SWIDTH 900 0
DWIDTH 5 0
BBX 4 6 1 1
BITMAP
60
60
90
F0
90
90
ENDCHAR
STARTCHAR 00C6
ENCODING 198
SWIDTH 1080 0
DWIDTH 6 0
BBX 5 5 1 0
BITMAP
78
A0
F0
A0
B8
ENDCHAR
STARTCHAR 00C7
ENCODING 199
SWIDTH 900 0
DWIDTH 5 0
BBX 3 6 1 -1
BITMAP
60
A0
80
80
E0
60
ENDCHAR
STARTCHAR 00C8
ENCODING 200
SWIDTH 900 0
DWIDTH 5 0
BBX 3 7 1 0
BITMAP
40
40
E0
80
C0
80
E0
ENDCHAR
STARTCHAR 00C9
ENCODING 201
SWIDTH 900 0
DWIDTH 5 0
BBX 3 7 1 0
BITMAP
20
40
E0
80
C0
80
E0
ENDCHAR
STARTCHAR 00CA
ENCODING 202
SWIDTH 900 0
DWIDTH 5 0
BBX 3 7 1 0
BITMAP
40
A0
E0
80
C0
80
E0
ENDCHAR
STARTCHAR 00CB
ENCODING 203
SWIDTH 900 0
DWIDTH 5 0
BBX 3 7 1 0
BITMAP
60
00
E0
80
C0
80
E0
ENDCHAR
STARTCHAR 00CC
ENCODING 204
SWIDTH 720 0
DWIDTH 4 0
BBX 3 7 1 0
BITMAP
80
40
E0
40
40
40
E0
ENDCHAR
STARTCHAR 00CD
ENCODING 205
SWIDTH 720 0
DWIDTH 4 0
BBX 3 7 1 0
BITMAP
40
40
E0
40
40
40
E0
ENDCHAR
STARTCHAR 00CE
ENCODING 206
SWIDTH 720 0
DWIDTH 4 0
BBX 3 7 1 0
BITMAP
40
A0
E0
40
40
40
E0
ENDCHAR
STARTCHAR 00CF
ENCODING 207
SWIDTH 720 0
DWIDTH 4 0
BBX 3 7 1 0
BITMAP
A0
00
E0
40
40
40
E0
ENDCHAR
STARTCHAR 00D0
ENCODING 208
SWIDTH 900 0
DWIDTH 5 0
BBX 5 5 0 0
BITMAP
70
50
E8
48
70
ENDCHAR
STARTCHAR 00D1
ENCODING 209
SWIDTH 900 0
DWIDTH 5 0
BBX 4 7 1 0
BITMAP
60
00
A0
E0
E0
B0
90
ENDCHAR
STARTCHAR 00D2
ENCODING 210
SWIDTH 900 0
DWIDTH 5 0
BBX 4 7 1 0
BITMAP
40
60
E0
90
90
90
E0
ENDCHAR
STARTCHAR 00D3
ENCODING 211
SWIDTH 900 0
DWIDTH 5 0
BBX 4 7 1 0
BITMAP
20
60
E0
90
90
90
E0
ENDCHAR
STARTCHAR 00D4
ENCODING 212
SWIDTH 900 0
DWIDTH 5 0
BBX 4 7 1 0
BITMAP
60
E0
E0
90
90
90
E0
ENDCHAR
STARTCHAR 00D5
ENCODING 213
SWIDTH 900 0
DWIDTH 5 0
BBX 4 7 1 0
BITMAP
40
20
E0
90
90
90
E0
ENDCHAR
STARTCHAR 00D6
ENCODING 214
SWIDTH 900 0
DWIDTH 5 0
BBX 4 7 1 0
BITMAP
60
00
60
90
90
90
60
ENDCHAR
STARTCHAR 00D7
ENCODING 215
SWIDTH 540 0
DWIDTH 3 0
BBX 2 2 1 1
BITMAP
C0
C0
ENDCHAR
STARTCHAR 00D8
ENCODING 216
SWIDTH 900 0
DWIDTH 5 0
BBX 4 5 1 0
BITMAP
F0
B0
D0
90
60
ENDCHAR
STARTCHAR 00D9
ENCODING 217
SWIDTH 900 0
DWIDTH 5 0
BBX 4 7 1 0
BITMAP
40
60
90
90
90
90
E0
ENDCHAR
STARTCHAR 00DA
ENCODING 218
SWIDTH 900 0
DWIDTH 5 0
BBX 4 7 1 0
BITMAP
20
60
90
90
90
90
E0
ENDCHAR
STARTCHAR 00DB
ENCODING 219
SWIDTH 900 0
DWIDTH 5 0
BBX 4 7 1 0
BITMAP
60
E0
90
90
90
90
E0
ENDCHAR
STARTCHAR 00DC
ENCODING 220
SWIDTH 900 0
DWIDTH 5 0
BBX 4 7 1 0
BITMAP
60
00
90
90
90
90
60
ENDCHAR
STARTCHAR 00DD
ENCODING 221
SWIDTH 720 0
DWIDTH 4 0
BBX 3 7 1 0
BITMAP
40
40
A0
A0
C0
40
40
ENDCHAR
STARTCHAR 00DE
ENCODING 222
SWIDTH 900 0
DWIDTH 5 0
BBX 4 5 1 0
BITMAP
80
E0
90
90
E0
ENDCHAR
STARTCHAR 00DF
ENCODING 223
SWIDTH 900 0
DWIDTH 5 0
BBX 3 5 1 0
BITMAP
E0
A0
A0
A0
E0
ENDCHAR
STARTCHAR 00E0
ENCODING 224
SWIDTH 720 0
DWIDTH 4 0
BBX 4 5 0 0
BITMAP
40
20
60
70
F0
ENDCHAR
STARTCHAR 00E1
ENCODING 225
SWIDTH 720 0
DWIDTH 4 0
BBX 4 5 0 0
BITMAP
20
20
60
70
F0
ENDCHAR
STARTCHAR 00E2
ENCODING 226
SWIDTH 720 0
DWIDTH 4 0
BBX 4 5 0 0
BITMAP
60
60
60
70
F0
ENDCHAR
STARTCHAR 00E3
ENCODING 227
SWIDTH 720 0
DWIDTH 4 0
BBX 4 4 0 1
BITMAP
60
60
70
F0
ENDCHAR
STARTCHAR 00E4
ENCODING 228
SWIDTH 720 0
DWIDTH 4 0
BBX 4 5 0 0
BITMAP
50
00
70
70
F0
ENDCHAR
STARTCHAR 00E5
ENCODING 229
SWIDTH 720 0
DWIDTH 4 0
BBX 4 4 0 1
BITMAP
60
60
70
F0
ENDCHAR
STARTCHAR 00E6
ENCODING 230
SWIDTH 1260 0
DWIDTH 7 0
BBX 7 3 0 0
BITMAP
6E
7E
FE
ENDCHAR
STARTCHAR 00E7
ENCODING 231
SWIDTH 900 0
DWIDTH 5 0
BBX 3 4 1 -1
BITMAP
E0
80
E0
60
ENDCHAR
STARTCHAR 00E8
ENCODING 232
SWIDTH 900 0
DWIDTH 5 0
BBX 4 5 1 0
BITMAP
40
40
E0
F0
E0
ENDCHAR
STARTCHAR 00E9
ENCODING 233
SWIDTH 900 0
DWIDTH 5 0
BBX 4 5 1 0
BITMAP
20
40
E0
F0
E0
ENDCHAR
STARTCHAR 00EA
ENCODING 234
SWIDTH 900 0
DWIDTH 5 0
BBX 4 5 1 0
BITMAP
60
A0
E0
F0
E0
ENDCHAR
STARTCHAR 00EB
ENCODING 235
SWIDTH 720 0
DWIDTH 4 0
BBX 4 5 0 0
BITMAP
60
00
60
F0
60
ENDCHAR
STARTCHAR 00EC
ENCODING 236
SWIDTH 360 0
DWIDTH 2 0
BBX 2 5 0 0
BITMAP
80
40
40
40
40
ENDCHAR
STARTCHAR 00ED
ENCODING 237
SWIDTH 540 0
DWIDTH 3 0
BBX 1 5 1 0
BITMAP
80
80
80
80
80
ENDCHAR
STARTCHAR 00EE
ENCODING 238
SWIDTH 540 0
DWIDTH 3 0
BBX 3 5 0 0
BITMAP
40
A0
40
40
40
ENDCHAR
STARTCHAR 00EF
ENCODING 239
SWIDTH 540 0
DWIDTH 3 0
BBX 3 5 0 0
BITMAP
A0
00
40
40
40
ENDCHAR
STARTCHAR 00F0
ENCODING 240
SWIDTH 1080 0
DWIDTH 6 0
BBX 4 5 1 0
BITMAP
10
30
F0
90
E0
ENDCHAR
STARTCHAR 00F1
ENCODING 241
SWIDTH 900 0
DWIDTH 5 0
BBX 4 5 1 0
BITMAP
40
20
E0
90
90
ENDCHAR
STARTCHAR 00F2
ENCODING 242
SWIDTH 900 0
DWIDTH 5 0
BBX 4 5 1 0
BITMAP
40
60
E0
90
E0
ENDCHAR
STARTCHAR 00F3
ENCODING 243
SWIDTH 900 0
DWIDTH 5 0
BBX 4 5 1 0
BITMAP
20
60
E0
90
E0
ENDCHAR
STARTCHAR 00F4
ENCODING 244
SWIDTH 900 0
DWIDTH 5 0
BBX 4 5 1 0
BITMAP
60
E0
E0
90
E0
ENDCHAR
STARTCHAR 00F5
ENCODING 245
SWIDTH 900 0
DWIDTH 5 0
BBX 4 5 1 0
BITMAP
40
20
E0
90
E0
ENDCHAR
STARTCHAR 00F6
ENCODING 246
SWIDTH 900 0
DWIDTH 5 0
BBX 4 5 1 0
BITMAP
60
00
60
90
60
ENDCHAR
STARTCHAR 00F7
ENCODING 247
SWIDTH 720 0
DWIDTH 4 0
BBX 3 3 1 0
BITMAP
40
E0
40
ENDCHAR
STARTCHAR 00F8
ENCODING 248
SWIDTH 900 0
DWIDTH 5 0
BBX 4 3 1 0
BITMAP
F0
D0
E0
ENDCHAR
STARTCHAR 00F9
ENCODING 249
SWIDTH 900 0
DWIDTH 5 0
BBX 4 5 1 0
BITMAP
40
60
90
90
F0
ENDCHAR
STARTCHAR 00FA
ENCODING 250
SWIDTH 900 0
DWIDTH 5 0
BBX 4 5 1 0
BITMAP
20
60
90
90
F0
ENDCHAR
STARTCHAR 00FB
ENCODING 251
SWIDTH 900 0
DWIDTH 5 0
BBX 4 5 1 0
BITMAP
60
E0
90
90
F0
ENDCHAR
STARTCHAR 00FC
ENCODING 252
SWIDTH 900 0
DWIDTH 5 0
BBX 4 5 1 0
BITMAP
60
00
90
90
70
ENDCHAR
STARTCHAR 00FD
ENCODING 253
SWIDTH 900 0
DWIDTH 5 0
BBX 4 7 1 -2
BITMAP
20
60
90
90
F0
10
E0
ENDCHAR
STARTCHAR 00FE
ENCODING 254
SWIDTH 900 0
DWIDTH 5 0
BBX 4 7 1 -2
BITMAP
80
80
E0
90
E0
80
80
ENDCHAR
STARTCHAR 00FF
ENCODING 255
SWIDTH 900 0
DWIDTH 5 0
BBX 4 7 1 -2
BITMAP
60
00
90
90
70
10
60
ENDCHAR
STARTCHAR 0178
ENCODING 376
SWIDTH 900 0
DWIDTH 5 0
BBX 4 7 1 0
BITMAP
60
00
90
90
60
40
40
ENDCHAR
STARTCHAR 0391
ENCODING 913
SWIDTH 900 0
DWIDTH 5 0
BBX 4 5 1 0
BITMAP
60
90
F0
90
90
ENDCHAR
STARTCHAR 0392
ENCODING 914
SWIDTH 900 0
DWIDTH 5 0
BBX 4 5 1 0
BITMAP
E0
90
E0
90
E0
ENDCHAR
STARTCHAR 0393
ENCODING 915
SWIDTH 720 0
DWIDTH 4 0
BBX 3 5 1 0
BITMAP
E0
80
80
80
80
ENDCHAR
STARTCHAR 0394
ENCODING 916
SWIDTH 1080 0
DWIDTH 6 0
BBX 5 5 0 0
BITMAP
10
30
28
48
F8
ENDCHAR
STARTCHAR 0395
ENCODING 917
SWIDTH 900 0
DWIDTH 5 0
BBX 3 5 1 0
BITMAP
E0
80
C0
80
E0
ENDCHAR
STARTCHAR 0396
ENCODING 918
SWIDTH 900 0
DWIDTH 5 0
BBX 4 5 1 0
BITMAP
F0
20
40
80
F0
ENDCHAR
STARTCHAR 0397
ENCODING 919
SWIDTH 900 0
DWIDTH 5 0
BBX 4 5 1 0
BITMAP
90
90
F0
90
90
ENDCHAR
STARTCHAR 0398
ENCODING 920
SWIDTH 900 0
DWIDTH 5 0
BBX 4 5 1 0
BITMAP
E0
90
F0
90
E0
ENDCHAR
STARTCHAR 0399
ENCODING 921
SWIDTH 720 0
DWIDTH 4 0
BBX 3 5 1 0
BITMAP
E0
40
40
40
E0
ENDCHAR
STARTCHAR 039A
ENCODING 922
SWIDTH 900 0
DWIDTH 5 0
BBX 4 5 1 0
BITMAP
90
A0
C0
A0
90
ENDCHAR
STARTCHAR 039B
ENCODING 923
SWIDTH 1080 0
DWIDTH 6 0
BBX 5 5 0 0
BITMAP
10
30
28
48
C8
ENDCHAR
STARTCHAR 039C
ENCODING 924
SWIDTH 900 0
DWIDTH 5 0
BBX 4 5 1 0
BITMAP
90
F0
E0
A0
A0
ENDCHAR
STARTCHAR 039D
ENCODING 925
SWIDTH 900 0
DWIDTH 5 0
BBX 4 5 1 0
BITMAP
A0
E0
E0
B0
90
ENDCHAR
STARTCHAR 039E
ENCODING 926
SWIDTH 720 0
DWIDTH 4 0
BBX 3 5 1 0
BITMAP
E0
00
C0
00
E0
ENDCHAR
STARTCHAR 039F
ENCODING 927
SWIDTH 900 0
DWIDTH 5 0
BBX 4 5 1 0
BITMAP
E0
90
90
90
E0
ENDCHAR
STARTCHAR 03A0
ENCODING 928
SWIDTH 1080 0
DWIDTH 6 0
BBX 5 5 0 0
BITMAP
F8
48
48
48
48
ENDCHAR
STARTCHAR 03A1
ENCODING 929
SWIDTH 900 0
DWIDTH 5 0
BBX 4 5 1 0
BITMAP
E0
90
E0
80
80
ENDCHAR
STARTCHAR 03A3
ENCODING 931
SWIDTH 720 0
DWIDTH 4 0
BBX 4 5 1 0
BITMAP
F0
80
40
80
F0
ENDCHAR
STARTCHAR 03A4
ENCODING 932
SWIDTH 720 0
DWIDTH 4 0
BBX 3 5 1 0
BITMAP
E0
40
40
40
40
ENDCHAR
STARTCHAR 03A5
ENCODING 933
SWIDTH 900 0
DWIDTH 5 0
BBX 4 5 0 0
BITMAP
90
50
60
20
20
ENDCHAR
STARTCHAR 03A6
ENCODING 934
SWIDTH 1080 0
DWIDTH 6 0
BBX 5 5 1 0
BITMAP
20
F0
A8
A8
F0
ENDCHAR
STARTCHAR 03A7
ENCODING 935
SWIDTH 900 0
DWIDTH 5 0
BBX 4 5 1 0
BITMAP
90
E0
60
90
90
ENDCHAR
STARTCHAR 03A8
ENCODING 936
SWIDTH 1080 0
DWIDTH 6 0
BBX 5 5 1 0
BITMAP
A8
70
20
20
20
ENDCHAR
STARTCHAR 03A9
ENCODING 937
SWIDTH 1260 0
DWIDTH 7 0
BBX 6 5 1 0
BITMAP
78
84
88
48
FC
ENDCHAR
STARTCHAR 03B1
ENCODING 945
SWIDTH 900 0
DWIDTH 5 0
BBX 3 3 1 0
BITMAP
E0
A0
E0
ENDCHAR
STARTCHAR 03B2
ENCODING 946
SWIDTH 900 0
DWIDTH 5 0
BBX 4 7 1 -2
BITMAP
60
90
A0
90
E0
80
80
ENDCHAR
STARTCHAR 0401
ENCODING 1025
SWIDTH 900 0
DWIDTH 5 0
BBX 3 7 1 0
BITMAP
60
00
E0
80
C0
80
E0
ENDCHAR
STARTCHAR 0404
ENCODING 1028
SWIDTH 720 0
DWIDTH 4 0
BBX 4 5 1 0
BITMAP
60
50
E0
80
70
ENDCHAR
STARTCHAR 0406
ENCODING 1030
SWIDTH 720 0
DWIDTH 4 0
BBX 3 5 1 0
BITMAP
E0
40
40
40
E0
ENDCHAR
STARTCHAR 0407
ENCODING 1031
SWIDTH 900 0
DWIDTH 5 0
BBX 3 7 1 0
BITMAP
A0
00
E0
40
40
40
E0
ENDCHAR
STARTCHAR 0409
ENCODING 1033
SWIDTH 1080 0
DWIDTH 6 0
BBX 6 5 0 0
BITMAP
70
50
58
54
98
ENDCHAR
STARTCHAR 040A
ENCODING 1034
SWIDTH 1260 0
DWIDTH 7 0
BBX 6 5 1 0
BITMAP
90
90
F8
94
98
ENDCHAR
STARTCHAR 0410
ENCODING 1040
SWIDTH 900 0
DWIDTH 5 0
BBX 4 5 1 0
BITMAP
60
90
F0
90
90
ENDCHAR
STARTCHAR 0411
ENCODING 1041
SWIDTH 900 0
DWIDTH 5 0
BBX 4 5 1 0
BITMAP
E0
80
E0
90
E0
ENDCHAR
STARTCHAR 0412
ENCODING 1042
SWIDTH 900 0
DWIDTH 5 0
BBX 4 5 1 0
BITMAP
E0
90
E0
90
E0
ENDCHAR
STARTCHAR 0413
ENCODING 1043
SWIDTH 720 0
DWIDTH 4 0
BBX 3 5 1 0
BITMAP
E0
80
80
80
80
ENDCHAR
STARTCHAR 0414
ENCODING 1044
SWIDTH 900 0
DWIDTH 5 0
BBX 4 6 0 -1
BITMAP
70
50
50
50
F0
90
ENDCHAR
STARTCHAR 0415
ENCODING 1045
SWIDTH 900 0
DWIDTH 5 0
BBX 3 5 1 0
BITMAP
E0
80
C0
80
E0
ENDCHAR
STARTCHAR 0416
ENCODING 1046
SWIDTH 1080 0
DWIDTH 6 0
BBX 5 5 1 0
BITMAP
A8
A8
F0
A8
A8
ENDCHAR
STARTCHAR 0417
ENCODING 1047
SWIDTH 720 0
DWIDTH 4 0
BBX 4 5 0 0
BITMAP
60
10
20
10
F0
ENDCHAR
STARTCHAR 0418
ENCODING 1048
SWIDTH 900 0
DWIDTH 5 0
BBX 4 5 1 0
BITMAP
90
B0
E0
E0
A0
ENDCHAR
STARTCHAR 0419
ENCODING 1049
SWIDTH 900 0
DWIDTH 5 0
BBX 4 7 1 0
BITMAP
A0
60
90
B0
E0
E0
A0
ENDCHAR
STARTCHAR 041A
ENCODING 1050
SWIDTH 900 0
DWIDTH 5 0
BBX 4 5 1 0
BITMAP
90
A0
C0
A0
90
ENDCHAR
STARTCHAR 041B
ENCODING 1051
SWIDTH 720 0
DWIDTH 4 0
BBX 4 5 0 0
BITMAP
70
50
50
50
90
ENDCHAR
STARTCHAR 041C
ENCODING 1052
SWIDTH 900 0
DWIDTH 5 0
BBX 4 5 1 0
BITMAP
90
F0
E0
A0
A0
ENDCHAR
STARTCHAR 041D
ENCODING 1053
SWIDTH 900 0
DWIDTH 5 0
BBX 4 5 1 0
BITMAP
90
90
F0
90
90
ENDCHAR
STARTCHAR 041E
ENCODING 1054
SWIDTH 900 0
DWIDTH 5 0
BBX 4 5 1 0
BITMAP
E0
90
90
90
E0
ENDCHAR
STARTCHAR 041F
ENCODING 1055
SWIDTH 900 0
DWIDTH 5 0
BBX 4 5 1 0
BITMAP
F0
90
90
90
90
ENDCHAR
STARTCHAR 0420
ENCODING 1056
SWIDTH 900 0
DWIDTH 5 0
BBX 4 5 1 0
BITMAP
E0
90
E0
80
80
ENDCHAR
STARTCHAR 0421
ENCODING 1057
SWIDTH 900 0
DWIDTH 5 0
BBX 3 5 1 0
BITMAP
60
A0
80
80
E0
ENDCHAR
STARTCHAR 0422
ENCODING 1058
SWIDTH 720 0
DWIDTH 4 0
BBX 3 5 1 0
BITMAP
E0
40
40
40
40
ENDCHAR
STARTCHAR 0423
ENCODING 1059
SWIDTH 900 0
DWIDTH 5 0
BBX 4 5 1 0
BITMAP
90
90
F0
10
F0
ENDCHAR
STARTCHAR 0424
ENCODING 1060
SWIDTH 1080 0
DWIDTH 6 0
BBX 5 5 1 0
BITMAP
20
F0
A8
A8
F0
ENDCHAR
STARTCHAR 0425
ENCODING 1061
SWIDTH 900 0
DWIDTH 5 0
BBX 4 5 1 0
BITMAP
90
E0
60
90
90
ENDCHAR
STARTCHAR 0426
ENCODING 1062
SWIDTH 900 0
DWIDTH 5 0
BBX 4 6 1 -1
BITMAP
90
90
90
90
F0
10
ENDCHAR
STARTCHAR 0427
ENCODING 1063
SWIDTH 900 0
DWIDTH 5 0
BBX 4 5 1 0
BITMAP
90
90
F0
10
10
ENDCHAR
STARTCHAR 0428
ENCODING 1064
SWIDTH 1080 0
DWIDTH 6 0
BBX 5 5 1 0
BITMAP
A8
A8
A8
A8
F8
ENDCHAR
STARTCHAR 0429
ENCODING 1065
SWIDTH 1080 0
DWIDTH 6 0
BBX 5 6 1 -1
BITMAP
A8
A8
A8
A8
F8
08
ENDCHAR
STARTCHAR 042A
ENCODING 1066
SWIDTH 900 0
DWIDTH 5 0
BBX 5 5 0 0
BITMAP
C0
40
70
48
70
ENDCHAR
STARTCHAR 042B
ENCODING 1067
SWIDTH 1080 0
DWIDTH 6 0
BBX 5 5 1 0
BITMAP
88
88
E8
98
E8
ENDCHAR
STARTCHAR 042C
ENCODING 1068
SWIDTH 900 0
DWIDTH 5 0
BBX 4 5 1 0
BITMAP
80
80
E0
90
E0
ENDCHAR
STARTCHAR 042D
ENCODING 1069
SWIDTH 720 0
DWIDTH 4 0
BBX 4 5 0 0
BITMAP
60
A0
70
10
E0
ENDCHAR
STARTCHAR 042E
ENCODING 1070
SWIDTH 1080 0
DWIDTH 6 0
BBX 5 5 1 0
BITMAP
B0
A8
E8
A8
B0
ENDCHAR
STARTCHAR 042F
ENCODING 1071
SWIDTH 900 0
DWIDTH 5 0
BBX 4 5 1 0
BITMAP
F0
90
F0
90
90
ENDCHAR
STARTCHAR 0430
ENCODING 1072
SWIDTH 720 0
DWIDTH 4 0
BBX 4 3 0 0
BITMAP
60
70
F0
ENDCHAR
STARTCHAR 0431
ENCODING 1073
SWIDTH 900 0
DWIDTH 5 0
BBX 4 5 1 0
BITMAP
E0
80
A0
D0
E0
ENDCHAR
STARTCHAR 0432
ENCODING 1074
SWIDTH 720 0
DWIDTH 4 0
BBX 4 3 1 0
BITMAP
F0
E0
F0
ENDCHAR
STARTCHAR 0433
ENCODING 1075
SWIDTH 720 0
DWIDTH 4 0
BBX 2 3 1 0
BITMAP
C0
80
80
ENDCHAR
STARTCHAR 0434
ENCODING 1076
SWIDTH 900 0
DWIDTH 5 0
BBX 4 4 0 -1
BITMAP
70
50
F0
90
ENDCHAR
STARTCHAR 0435
ENCODING 1077
SWIDTH 900 0
DWIDTH 5 0
BBX 4 3 1 0
BITMAP
E0
F0
E0
ENDCHAR
STARTCHAR 0436
ENCODING 1078
SWIDTH 1080 0
DWIDTH 6 0
BBX 5 3 1 0
BITMAP
A8
F0
A8
ENDCHAR
STARTCHAR 0437
ENCODING 1079
SWIDTH 720 0
DWIDTH 4 0
BBX 3 3 1 0
BITMAP
E0
60
E0
ENDCHAR
STARTCHAR 0438
ENCODING 1080
SWIDTH 900 0
DWIDTH 5 0
BBX 4 3 1 0
BITMAP
B0
D0
D0
ENDCHAR
STARTCHAR 0439
ENCODING 1081
SWIDTH 900 0
DWIDTH 5 0
BBX 4 5 1 0
BITMAP
90
60
B0
D0
D0
ENDCHAR
STARTCHAR 043A
ENCODING 1082
SWIDTH 720 0
DWIDTH 4 0
BBX 3 3 1 0
BITMAP
A0
C0
A0
ENDCHAR
STARTCHAR 043B
ENCODING 1083
SWIDTH 720 0
DWIDTH 4 0
BBX 4 3 0 0
BITMAP
70
50
90
ENDCHAR
STARTCHAR 043C
ENCODING 1084
SWIDTH 900 0
DWIDTH 5 0
BBX 4 3 1 0
BITMAP
90
F0
90
ENDCHAR
STARTCHAR 043D
ENCODING 1085
SWIDTH 900 0
DWIDTH 5 0
BBX 4 3 1 0
BITMAP
90
F0
90
ENDCHAR
STARTCHAR 043E
ENCODING 1086
SWIDTH 900 0
DWIDTH 5 0
BBX 4 3 1 0
BITMAP
E0
90
E0
ENDCHAR
STARTCHAR 043F
ENCODING 1087
SWIDTH 900 0
DWIDTH 5 0
BBX 4 3 1 0
BITMAP
F0
90
90
ENDCHAR
STARTCHAR 0440
ENCODING 1088
SWIDTH 900 0
DWIDTH 5 0
BBX 4 5 1 -2
BITMAP
E0
90
E0
80
80
ENDCHAR
STARTCHAR 0441
ENCODING 1089
SWIDTH 900 0
DWIDTH 5 0
BBX 3 3 1 0
BITMAP
E0
80
E0
ENDCHAR
STARTCHAR 0442
ENCODING 1090
SWIDTH 720 0
DWIDTH 4 0
BBX 3 3 1 0
BITMAP
E0
40
40
ENDCHAR
STARTCHAR 0443
ENCODING 1091
SWIDTH 900 0
DWIDTH 5 0
BBX 4 5 1 -2
BITMAP
90
90
F0
10
E0
ENDCHAR
STARTCHAR 0444
ENCODING 1092
SWIDTH 1080 0
DWIDTH 6 0
BBX 5 7 1 -2
BITMAP
20
20
F0
A8
F0
20
20
ENDCHAR
STARTCHAR 0445
ENCODING 1093
SWIDTH 720 0
DWIDTH 4 0
BBX 2 3 2 0
BITMAP
40
80
40
ENDCHAR
STARTCHAR 0446
ENCODING 1094
SWIDTH 900 0
DWIDTH 5 0
BBX 4 4 1 -1
BITMAP
90
90
F0
10
ENDCHAR
STARTCHAR 0447
ENCODING 1095
SWIDTH 900 0
DWIDTH 5 0
BBX 4 3 1 0
BITMAP
90
F0
10
ENDCHAR
STARTCHAR 0448
ENCODING 1096
SWIDTH 1080 0
DWIDTH 6 0
BBX 5 3 1 0
BITMAP
A8
A8
F8
ENDCHAR
STARTCHAR 0449
ENCODING 1097
SWIDTH 1080 0
DWIDTH 6 0
BBX 4 4 1 -1
BITMAP
B0
B0
F0
10
ENDCHAR
STARTCHAR 044A
ENCODING 1098
SWIDTH 900 0
DWIDTH 5 0
BBX 5 3 0 0
BITMAP
C0
70
78
ENDCHAR
STARTCHAR 044B
ENCODING 1099
SWIDTH 1080 0
DWIDTH 6 0
BBX 5 3 1 0
BITMAP
88
E8
E8
ENDCHAR
STARTCHAR 044C
ENCODING 1100
SWIDTH 900 0
DWIDTH 5 0
BBX 3 3 1 0
BITMAP
80
E0
E0
ENDCHAR
STARTCHAR 044D
ENCODING 1101
SWIDTH 720 0
DWIDTH 4 0
BBX 4 3 0 0
BITMAP
F0
30
F0
ENDCHAR
STARTCHAR 044E
ENCODING 1102
SWIDTH 1080 0
DWIDTH 6 0
BBX 5 3 1 0
BITMAP
B0
C8
B0
ENDCHAR
STARTCHAR 044F
ENCODING 1103
SWIDTH 900 0
DWIDTH 5 0
BBX 4 3 1 0
BITMAP
F0
F0
90
ENDCHAR
STARTCHAR 0450
ENCODING 1104
SWIDTH 900 0
DWIDTH 5 0
BBX 4 5 1 0
BITMAP
40
40
E0
F0
E0
ENDCHAR
STARTCHAR 0451
ENCODING 1105
SWIDTH 720 0
DWIDTH 4 0
BBX 4 5 0 0
BITMAP
60
00
60
F0
60
ENDCHAR
STARTCHAR 0453
ENCODING 1107
SWIDTH 720 0
DWIDTH 4 0
BBX 2 5 1 0
BITMAP
40
40
C0
80
80
ENDCHAR
STARTCHAR 0454
ENCODING 1108
SWIDTH 720 0
DWIDTH 4 0
BBX 4 3 1 0
BITMAP
F0
C0
F0
ENDCHAR
STARTCHAR 0456
ENCODING 1110
SWIDTH 360 0
DWIDTH 2 0
BBX 1 5 1 0
BITMAP
80
00
80
80
80
ENDCHAR
STARTCHAR 0457
ENCODING 1111
SWIDTH 540 0
DWIDTH 3 0
BBX 3 5 0 0
BITMAP
A0
00
40
40
40
ENDCHAR
STARTCHAR 0459
ENCODING 1113
SWIDTH 1080 0
DWIDTH 6 0
BBX 6 3 0 0
BITMAP
70
58
DC
ENDCHAR
STARTCHAR 045A
ENCODING 1114
SWIDTH 1260 0
DWIDTH 7 0
BBX 6 3 1 0
BITMAP
90
F8
9C
ENDCHAR
STARTCHAR 045B
ENCODING 1115
SWIDTH 900 0
DWIDTH 5 0
BBX 5 5 0 0
BITMAP
40
E0
50
68
48
ENDCHAR
STARTCHAR 045C
ENCODING 1116
SWIDTH 720 0
DWIDTH 4 0
BBX 3 5 1 0
BITMAP
40
40
A0
C0
A0
ENDCHAR
STARTCHAR 045D
ENCODING 1117
SWIDTH 900 0
DWIDTH 5 0
BBX 4 5 1 0
BITMAP
40
60
B0
D0
D0
ENDCHAR
STARTCHAR 045E
ENCODING 1118
SWIDTH 900 0
DWIDTH 5 0
BBX 4 7 1 -2
BITMAP
90
60
90
90
F0
10
E0
ENDCHAR
STARTCHAR 0490
ENCODING 1168
SWIDTH 720 0
DWIDTH 4 0
BBX 3 6 1 0
BITMAP
20
E0
80
80
80
80
ENDCHAR
STARTCHAR 0491
ENCODING 1169
SWIDTH 720 0
DWIDTH 4 0
BBX 2 4 1 0
BITMAP
40
C0
80
80
ENDCHAR
STARTCHAR 0492
ENCODING 1170
SWIDTH 720 0
DWIDTH 4 0
BBX 4 5 0 0
BITMAP
70
40
E0
40
40
ENDCHAR
STARTCHAR 0493
ENCODING 1171
SWIDTH 720 0
DWIDTH 4 0
BBX 3 3 0 0
BITMAP
60
E0
40
ENDCHAR
STARTCHAR 0496
ENCODING 1174
SWIDTH 1080 0
DWIDTH 6 0
BBX 4 6 1 -1
BITMAP
B0
B0
E0
B0
B0
10
ENDCHAR
STARTCHAR 0497
ENCODING 1175
SWIDTH 1080 0
DWIDTH 6 0
BBX 4 4 1 -1
BITMAP
B0
E0
B0
10
ENDCHAR
STARTCHAR 049A
ENCODING 1178
SWIDTH 900 0
DWIDTH 5 0
BBX 4 6 1 -1
BITMAP
A0
C0
C0
A0
A0
10
ENDCHAR
STARTCHAR 049B
ENCODING 1179
SWIDTH 900 0
DWIDTH 5 0
BBX 4 4 1 -1
BITMAP
E0
C0
B0
10
ENDCHAR
STARTCHAR 049C
ENCODING 1180
SWIDTH 900 0
DWIDTH 5 0
BBX 4 5 1 0
BITMAP
90
E0
E0
E0
90
ENDCHAR
STARTCHAR 049D
ENCODING 1181
SWIDTH 900 0
DWIDTH 5 0
BBX 3 3 1 0
BITMAP
A0
C0
A0
ENDCHAR
STARTCHAR 049E
ENCODING 1182
SWIDTH 900 0
DWIDTH 5 0
BBX 5 5 0 0
BITMAP
48
F0
60
50
48
ENDCHAR
STARTCHAR 049F
ENCODING 1183
SWIDTH 720 0
DWIDTH 4 0
BBX 4 5 0 0
BITMAP
40
C0
70
60
50
ENDCHAR
STARTCHAR 04A0
ENCODING 1184
SWIDTH 900 0
DWIDTH 5 0
BBX 5 5 0 0
BITMAP
C8
50
60
50
48
ENDCHAR
STARTCHAR 04A1
ENCODING 1185
SWIDTH 720 0
DWIDTH 4 0
BBX 4 3 0 0
BITMAP
D0
60
50
ENDCHAR
STARTCHAR 04A2
ENCODING 1186
SWIDTH 900 0
DWIDTH 5 0
BBX 4 6 1 -1
BITMAP
90
90
F0
90
90
10
ENDCHAR
STARTCHAR 04A3
ENCODING 1187
SWIDTH 900 0
DWIDTH 5 0
BBX 4 4 1 -1
BITMAP
90
F0
90
10
ENDCHAR
STARTCHAR 04A4
ENCODING 1188
SWIDTH 1080 0
DWIDTH 6 0
BBX 5 5 1 0
BITMAP
98
90
F0
90
90
ENDCHAR
STARTCHAR 04A5
ENCODING 1189
SWIDTH 1080 0
DWIDTH 6 0
BBX 5 3 1 0
BITMAP
98
F0
90
ENDCHAR
STARTCHAR 04AC
ENCODING 1196
SWIDTH 900 0
DWIDTH 5 0
BBX 3 6 1 -1
BITMAP
E0
40
40
40
40
20
ENDCHAR
STARTCHAR 04AD
ENCODING 1197
SWIDTH 720 0
DWIDTH 4 0
BBX 3 4 1 -1
BITMAP
E0
40
40
20
ENDCHAR
STARTCHAR 2018
ENCODING 8216
SWIDTH 540 0
DWIDTH 3 0
BBX 1 2 1 3
BITMAP
80
80
ENDCHAR
STARTCHAR 2019
ENCODING 8217
SWIDTH 360 0
DWIDTH 2 0
BBX 2 2 0 3
BITMAP
40
80
ENDCHAR
STARTCHAR 201C
ENCODING 8220
SWIDTH 900 0
DWIDTH 5 0
BBX 3 2 1 3
BITMAP
E0
A0
ENDCHAR
STARTCHAR 201D
ENCODING 8221
SWIDTH 720 0
DWIDTH 4 0
BBX 4 2 0 3
BITMAP
50
A0
ENDCHAR
STARTCHAR 20AC
ENCODING 8364
SWIDTH 900 0
DWIDTH 5 0
BBX 5 5 0 0
BITMAP
30
28
E0
E0
78
ENDCHAR
STARTCHAR 2122
ENCODING 8482
SWIDTH 900 0
DWIDTH 5 0
BBX 4 2 1 2
BITMAP
F0
D0
ENDCHAR
STARTCHAR FB00
ENCODING 64256
SWIDTH 900 0
DWIDTH 5 0
BBX 5 5 0 0
BITMAP
78
50
F8
50
50
ENDCHAR
STARTCHAR FB01
ENCODING 64257
SWIDTH 720 0
DWIDTH 4 0
BBX 4 5 0 0
BITMAP
60
40
F0
50
50
ENDCHAR
STARTCHAR FB02
ENCODING 64258
SWIDTH 900 0
DWIDTH 5 0
BBX 4 5 0 0
BITMAP
70
50
F0
50
50
ENDCHAR
STARTCHAR FB03
ENCODING 64259
SWIDTH 1080 0
DWIDTH 6 0
BBX 6 5 0 0
BITMAP
78
50
FC
54
54
ENDCHAR
STARTCHAR FB04
ENCODING 64260
SWIDTH 1260 0
DWIDTH 7 0
BBX 6 5 0 0
BITMAP
7C
54
FC
54
54
ENDCHAR
ENDFONT
